<?xml version="1.0" encoding="utf-8"?>
<!-- Generator: Adobe Illustrator 25.1.0, SVG Export Plug-In . SVG Version: 6.00 Build 0)  -->
<svg version="1.1" id="레이어_1" xmlns="http://www.w3.org/2000/svg" xmlns:xlink="http://www.w3.org/1999/xlink" x="0px"
	 y="0px" viewBox="0 0 17 18" style="enable-background:new 0 0 17 18;" xml:space="preserve">
<style type="text/css">
	.st0{fill:none;stroke:#8DC63F;stroke-width:1.0674;stroke-linecap:round;stroke-linejoin:round;stroke-miterlimit:10;}
</style>
<rect x="-2.19" y="10.63" transform="matrix(4.485904e-11 1 -1 4.485904e-11 15.1352 9.65)" class="st0" width="9.87" height="3.53"/>
<path class="st0" d="M15.87,11.16c0-0.68-0.55-1.23-1.23-1.23c0.68,0,1.23-0.55,1.23-1.23s-0.55-1.23-1.23-1.23h-0.25h-2.02h-3.4
	L9.7,2.19c0.16-0.68-0.26-1.36-0.93-1.52C8.09,0.51,7.41,0.93,7.25,1.61L4.51,7.46v9.87h7.86h2.02h0.25c0.68,0,1.23-0.55,1.23-1.23
	c0-0.68-0.55-1.23-1.23-1.23c0.68,0,1.23-0.55,1.23-1.23c0-0.68-0.55-1.23-1.23-1.23C15.31,12.39,15.87,11.84,15.87,11.16z"/>
</svg>
