<?xml version="1.0" encoding="utf-8"?>
<!-- Generator: Adobe Illustrator 25.1.0, SVG Export Plug-In . SVG Version: 6.00 Build 0)  -->
<svg version="1.1" id="레이어_1" xmlns="http://www.w3.org/2000/svg" xmlns:xlink="http://www.w3.org/1999/xlink" x="0px"
	 y="0px" viewBox="0 0 14 15" style="enable-background:new 0 0 14 15;" xml:space="preserve">
<style type="text/css">
	.st0{fill:#252525;}
</style>
<g>
	<g>
		<path class="st0" d="M12.44,0.98c0.34,0,0.62,0.28,0.62,0.62v11.83c0,0.34-0.28,0.62-0.62,0.62H1.6c-0.34,0-0.62-0.28-0.62-0.62
			V1.6c0-0.34,0.28-0.62,0.62-0.62h1.38v1.27C2.72,2.35,2.54,2.6,2.54,2.9c0,0.39,0.31,0.7,0.7,0.7c0.39,0,0.7-0.31,0.7-0.7
			c0-0.3-0.18-0.55-0.44-0.65V0.98H5.5v1.27C5.24,2.35,5.06,2.6,5.06,2.9c0,0.39,0.31,0.7,0.7,0.7c0.39,0,0.7-0.31,0.7-0.7
			c0-0.3-0.18-0.55-0.44-0.65V0.98h2.01v1.27C7.76,2.35,7.58,2.6,7.58,2.9c0,0.39,0.31,0.7,0.7,0.7c0.39,0,0.7-0.31,0.7-0.7
			c0-0.3-0.18-0.55-0.44-0.65V0.98h2.01v1.27C10.28,2.35,10.1,2.6,10.1,2.9c0,0.39,0.31,0.7,0.7,0.7c0.39,0,0.7-0.31,0.7-0.7
			c0-0.3-0.18-0.55-0.44-0.65V0.98H12.44 M12.44,0h-1.38c-0.09,0-0.17,0.01-0.26,0.03C10.72,0.01,10.63,0,10.54,0H8.54
			C8.45,0,8.36,0.01,8.28,0.03C8.2,0.01,8.11,0,8.02,0H6.02C5.93,0,5.84,0.01,5.76,0.03C5.68,0.01,5.59,0,5.5,0H3.49
			C3.41,0,3.32,0.01,3.24,0.03C3.16,0.01,3.07,0,2.98,0H1.6C0.72,0,0,0.72,0,1.6v11.83c0,0.88,0.72,1.6,1.6,1.6h10.83
			c0.88,0,1.6-0.72,1.6-1.6V1.6C14.04,0.72,13.32,0,12.44,0L12.44,0z"/>
	</g>
	<g>
		<path class="st0" d="M10.96,6.22H3.07C2.8,6.22,2.58,6,2.58,5.73c0-0.27,0.22-0.49,0.49-0.49h7.89c0.27,0,0.49,0.22,0.49,0.49
			C11.45,6,11.23,6.22,10.96,6.22z"/>
	</g>
	<g>
		<path class="st0" d="M10.96,8.49H3.07C2.8,8.49,2.58,8.27,2.58,8c0-0.27,0.22-0.49,0.49-0.49h7.89c0.27,0,0.49,0.22,0.49,0.49
			C11.45,8.27,11.23,8.49,10.96,8.49z"/>
	</g>
</g>
</svg>
