<?xml version="1.0" encoding="utf-8"?>
<!-- Generator: Adobe Illustrator 25.1.0, SVG Export Plug-In . SVG Version: 6.00 Build 0)  -->
<svg version="1.1" id="레이어_1" xmlns="http://www.w3.org/2000/svg" xmlns:xlink="http://www.w3.org/1999/xlink" x="0px"
	 y="0px" viewBox="0 0 15 20" style="enable-background:new 0 0 15 20;" xml:space="preserve">
<style type="text/css">
	.st0{fill:#252525;}
</style>
<g>
	<path class="st0" d="M2.62,17.73l9.75,0.02h0.01c1.53,0,2.49-0.85,2.57-2.27c0.02-0.31,0.02-0.62,0-0.92
		c-0.04-0.61-0.15-1.29-0.63-1.77c-0.61-0.6-1.49-0.75-2.28-0.88c-0.25-0.04-0.49-0.08-0.69-0.13c-1.2-0.31-1.82-1.18-1.89-2.65
		c-0.02-0.48-0.02-2.1,0.01-2.73c0.97-0.65,1.54-1.73,1.55-2.89c0-0.93-0.36-1.81-1.02-2.47C9.34,0.37,8.46,0,7.53,0
		C5.6,0,4.04,1.56,4.03,3.48c0,1.16,0.57,2.25,1.53,2.9c0.02,0.64,0.02,2.25-0.01,2.73c-0.08,1.48-0.7,2.34-1.9,2.65
		c-0.2,0.05-0.44,0.09-0.69,0.13c-0.78,0.13-1.66,0.27-2.27,0.87c-0.49,0.47-0.6,1.16-0.64,1.77c-0.02,0.3-0.02,0.61-0.01,0.92
		C0.12,16.87,1.08,17.73,2.62,17.73z M6.74,9.17c0.01-0.29,0.02-1.05,0.02-1.78c0-1.58,0-1.68-0.35-1.87
		c-0.74-0.41-1.2-1.19-1.2-2.03c0-1.27,1.04-2.31,2.32-2.31c0.62,0,1.2,0.24,1.63,0.68C9.6,2.3,9.84,2.88,9.84,3.5
		c0,0.84-0.47,1.62-1.21,2.03C8.29,5.72,8.29,5.81,8.27,7.39c-0.01,0.74,0,1.5,0.01,1.78c0.09,2,1.05,3.3,2.77,3.74
		c0.25,0.06,0.51,0.11,0.79,0.16c0.64,0.11,1.3,0.22,1.64,0.56c0.2,0.2,0.26,0.62,0.28,1c0.02,0.26,0.02,0.52,0,0.78
		c-0.03,0.5-0.2,1.16-1.4,1.16h-0.01l-9.75-0.02c-1.2,0-1.37-0.67-1.4-1.17c-0.01-0.26-0.01-0.53,0.01-0.78
		c0.03-0.38,0.08-0.8,0.28-1c0.35-0.34,1.01-0.45,1.64-0.55C3.43,13,3.7,12.96,3.95,12.9C5.67,12.46,6.63,11.17,6.74,9.17z"/>
	<path class="st0" d="M14.3,18.83H0.7c-0.33,0-0.59,0.26-0.59,0.59s0.26,0.59,0.59,0.59h13.6c0.33,0,0.59-0.26,0.59-0.59
		S14.62,18.83,14.3,18.83z"/>
</g>
</svg>
