<?xml version="1.0" encoding="utf-8"?>
<!-- Generator: Adobe Illustrator 25.1.0, SVG Export Plug-In . SVG Version: 6.00 Build 0)  -->
<svg version="1.1" id="레이어_1" xmlns="http://www.w3.org/2000/svg" xmlns:xlink="http://www.w3.org/1999/xlink" x="0px"
	 y="0px" viewBox="0 0 48 48" style="enable-background:new 0 0 48 48;" xml:space="preserve">
<style type="text/css">
	.st0{fill:#DCDCDC;}
</style>
<path id="path4445_1_" class="st0" d="M19.84,0.36c-1.38,0.24-2.71,0.61-3.99,1.07l0.12,0.13L15.85,1.6
	c-0.05,0.02-0.09-0.02-0.13-0.12c-1.68,0.61-3.25,1.4-4.72,2.35c0.08-0.02,0.18-0.05,0.24-0.06c0.14-0.03,0.24-0.03,0.26,0
	c0.08,0.12,0.04,0.19-0.14,0.26l-0.25,0.1l0.27,0.09c0.48,0.16,0.4,0.4-0.16,0.52c-1,0.2-1.74,0.42-2.46,0.73
	C8.35,5.81,7.94,6.18,7.55,6.55C7.6,6.53,7.66,6.51,7.73,6.5c0.03-0.01,0.06-0.01,0.09-0.02c0.55-0.07,0.53,0.05-0.04,0.26
	C7.73,6.77,7.67,6.78,7.62,6.78C7.47,6.81,7.37,6.8,7.36,6.72C7.32,6.76,7.28,6.81,7.24,6.85C7.28,6.92,7.28,6.98,7.23,7
	C7.2,7.02,7.17,6.97,7.16,6.92C5.74,8.32,4.51,9.9,3.48,11.6c0.32,0,0.67,0.07,0.7,0.24c0.05,0.31-0.62,0.38-0.7,0.18
	c-0.07-0.17-0.12-0.18-0.15-0.04c-0.01,0.04-0.07,0.09-0.17,0.15c-0.02,0.03-0.04,0.06-0.06,0.1c0.02,0.04,0.04,0.09,0.05,0.15
	c0.01,0.06,0.02,0.13,0.02,0.17c0.04-0.02,0.09-0.08,0.15-0.17c0.11-0.15,0.25-0.21,0.31-0.13c0.06,0.08-0.05,0.26-0.26,0.44
	c-0.01,0.01-0.02,0.01-0.03,0.02c0.17-0.01,0.33,0.03,0.35,0.17c0.02,0.12-0.06,0.26-0.18,0.29c-0.12,0.03-0.25,0.11-0.29,0.17
	c-0.06,0.1-0.36,0.25-0.91,0.46c-0.02,0.04-0.04,0.07-0.06,0.11l0.8-0.27l0.41,1.05c-0.3-0.12-0.4-0.4-0.67-0.46l-0.62-0.15
	c-0.74,1.62-1.3,3.32-1.66,5.08c0.04,0.05,0.07,0.1,0.09,0.14c0.18-0.14,0.53-0.27,0.87-0.33c0.44-0.08,0.85-0.07,0.85,0.09
	c0,0.17-0.32,0.33-0.72,0.43c-0.24,0.05-0.52,0.08-0.78,0.06l-0.29-0.01c-0.03,0.02-0.07,0.03-0.1,0.05c-0.19,1-0.31,2.02-0.37,3.05
	l1.08-0.36l0.42,1.06c-0.3-0.12-0.42-0.4-0.68-0.47l-0.82-0.2c-0.04,0.65-0.05,1.31-0.04,1.97c0.55-0.1,1.02-0.09,1.04,0.03
	c0.02,0.12-0.39,0.14-0.94,0.24c-0.05,0.01-0.04,0.01-0.08,0.01c0.04,1.08,0.15,2.17,0.34,3.27c0.13,0.76,0.31,1.5,0.51,2.22
	c0.13,0.07,0.57,0.49,0.49,0.78c-0.03,0.11-0.16-0.02-0.29-0.1c0.14,0.45,0.3,0.9,0.46,1.34c-0.03-0.07-0.04-0.15-0.02-0.22
	c0.07-0.23,0.41-0.35,0.61-0.39c0.07-0.01,0.12-0.01,0.15,0c0.11,0.04,0.12,0.32,0.04,0.62s-0.25,0.52-0.35,0.48
	c-0.08-0.03-0.33-0.23-0.42-0.46c0.22,0.59,0.47,1.18,0.73,1.75c0.01-0.01,0.03-0.01,0.04-0.02c0.12-0.07,0.21-0.16,0.29-0.25
	c-0.31,0.13-0.33,0.1-0.24-0.19c0.07-0.22,0.39-0.43,0.93-0.6c0.21-0.07,0.4-0.14,0.56-0.21c-0.18-0.41-0.34-0.82-0.5-1.25
	c-0.12,0.03-0.25,0.05-0.34,0.04c-0.14-0.02-0.03-0.08,0.25-0.13c0.02,0,0.03-0.01,0.05-0.01c-0.05-0.14-0.11-0.27-0.16-0.41
	c-0.04,0.01-0.08,0.02-0.11,0.03c-0.25,0.06-0.3,0.03-0.17-0.08c0.06-0.05,0.14-0.09,0.23-0.14c-0.02-0.07-0.05-0.13-0.07-0.2
	c-0.02-0.01-0.03-0.02-0.03-0.04c0-0.01,0-0.02,0-0.03c-0.04-0.12-0.07-0.24-0.11-0.35c-0.02,0.02-0.03,0.04-0.06,0.04
	c-0.03,0-0.05,0-0.08-0.03c-0.04-0.04-0.04-0.07,0-0.1c0.01-0.01,0.03-0.01,0.05-0.01c0.02,0,0.04-0.01,0.05-0.01
	c-0.03-0.1-0.07-0.2-0.1-0.3c0,0-0.01,0-0.01,0c-0.03,0-0.05,0-0.08-0.03c-0.05-0.05-0.03-0.09,0.06-0.11
	c-0.1-0.37-0.19-0.75-0.27-1.12c-0.02-0.05-0.03-0.1-0.03-0.16c0,0,0-0.01,0-0.01c-0.05-0.23-0.1-0.46-0.14-0.7
	c-0.12-0.69-0.2-1.38-0.26-2.07c0,0-0.01,0-0.01,0c-0.08,0.03-0.15,0.05-0.21,0.06c-0.19,0.04-0.3,0.03-0.25-0.05
	c0.07-0.11,0.16-0.26,0.2-0.33c0.02-0.04,0.12-0.1,0.24-0.15c-0.01-0.21-0.02-0.42-0.02-0.62c-0.3,0.11-0.66,0.25-1.05,0.41
	c-0.07,0.03-0.12,0.05-0.17,0.06c-0.14,0.04-0.18,0-0.1-0.11c0.08-0.12,0.44-0.32,0.79-0.46c0.18-0.07,0.36-0.16,0.51-0.23
	c-0.01-0.83,0.03-1.66,0.11-2.47c-0.06-0.03-0.06-0.09,0.01-0.16c0.02-0.24,0.06-0.47,0.09-0.71c-0.12,0.03-0.34,0.11-0.52,0.19
	c-0.07,0.03-0.12,0.05-0.16,0.06c-0.13,0.04-0.16-0.01-0.1-0.12c0.11-0.2,0.45-0.38,0.71-0.45c0.04-0.01,0.08-0.02,0.11-0.02
	c0.08-0.5,0.17-1.01,0.28-1.5c-0.16-0.09-0.12-0.22,0.08-0.32c0.07-0.3,0.15-0.59,0.23-0.88c-0.13,0.01-0.26,0.01-0.33,0
	c0.01,0.09-0.03,0.16-0.11,0.19c-0.09,0.03-0.43,0.13-0.75,0.23c-0.32,0.09-0.65,0.24-0.72,0.33c-0.02,0.03-0.04,0.05-0.05,0.06
	c0.01,0,0.03-0.02,0.04-0.02c0.08-0.01,0.12,0.03,0.09,0.09c-0.02,0.03-0.04,0.05-0.07,0.05c-0.03,0-0.06,0-0.09-0.03
	c-0.03-0.03-0.02-0.06,0-0.08c-0.03,0-0.04-0.05-0.02-0.17c0.02-0.14,0.02-0.33-0.01-0.44c-0.06-0.21,0.02-0.2,0.13,0.02
	c0.04,0.08,0.13,0.08,0.2-0.01c0.07-0.09,0.33-0.25,0.58-0.34c0.25-0.09,0.61-0.34,0.78-0.54c0.21-0.25,0.36-0.38,0.48-0.4
	c0.06-0.01,0.11,0.01,0.15,0.06c0.3-0.88,0.65-1.74,1.06-2.58c-0.01-0.01-0.03-0.02-0.05-0.04c-0.1-0.09-0.1-0.11-0.02-0.15
	c0.01,0,0.05-0.01,0.11-0.02c0.01,0,0.05-0.01,0.06-0.01c0.65-1.29,1.42-2.52,2.3-3.66c-0.03,0.03-0.07,0.08-0.07,0.08
	s-1.09,0.08-1.06-0.4c0.02-0.32,0.46-0.64,0.88-0.75C6.39,9.42,6.45,9.41,6.5,9.4c0.15-0.02,0.29,0,0.39,0.07
	c0.3,0.2-0.06,0.72-0.27,0.97c0.31-0.39,0.63-0.77,0.96-1.14C7.56,9.29,7.55,9.27,7.56,9.24C7.59,9.16,7.7,9.08,7.84,9.02
	c0.83-0.9,1.74-1.72,2.71-2.47c0.17-0.27,0.35-0.48,0.47-0.5c0.06-0.01,0.07,0.03,0.06,0.11c0.61-0.44,1.24-0.86,1.9-1.24L12.82,4.9
	l-0.54-0.02l0.55-0.27c0.31-0.15,0.57-0.27,0.82-0.37c0,0,0-0.01,0-0.01c0-0.11,0.32-0.28,0.71-0.37c0.39-0.1,0.77-0.24,0.84-0.32
	c0.11-0.13,0.13-0.12,0.1,0.12c0,0.04-0.04,0.07-0.08,0.11c0.08-0.02,0.14-0.04,0.19-0.07c0.15-0.07,0.2-0.14,0.14-0.25
	c-0.08-0.16-0.39-0.13-0.95,0.06c-1.63,0.56-2.25,0.72-2.02,0.52l0.23-0.2l-0.22,0c-0.15,0-0.21-0.07-0.2-0.21
	c0.01-0.08,0.15-0.18,0.34-0.24c-0.02,0-0.04-0.05-0.08-0.15c-0.08-0.2-0.08-0.26,0-0.28c0.08-0.01,0.1,0.05,0.1,0.26
	c0,0.11-0.01,0.16-0.02,0.16c0.07-0.02,0.16-0.04,0.25-0.05c0.49-0.07,0.54-0.06,0.3,0.12C12.99,3.66,13.15,3.6,14.49,3l0.61-0.27
	L14.37,2.9c-0.61,0.13-0.74,0.1-0.72-0.14c0.02-0.21,0.26-0.34,0.89-0.46c0.48-0.08,0.99-0.23,1.15-0.32
	c0.07-0.04,0.13-0.07,0.17-0.07c0.07-0.01,0.09,0.03,0.07,0.13c-0.03,0.12-0.12,0.25-0.21,0.27c-0.08,0.02-0.13,0.12-0.13,0.25
	c0.09-0.05,0.23-0.08,0.37-0.08c0-0.11,0.02-0.2,0.06-0.2c0.06-0.01,0.07,0.04,0.05,0.18c0,0.01,0,0.03,0,0.04
	c0.08,0.01,0.16,0.03,0.23,0.05c0.24,0.09,0.21,0.1-0.13,0.12c-0.03,0-0.05,0.01-0.08,0.01c0.02,0.09,0.06,0.19,0.13,0.32
	c0.08,0.16,0.16,0.24,0.35,0.25c0.5-0.18,1.01-0.34,1.54-0.48c-0.03-0.2-0.07-0.45-0.07-0.45l1.18-0.39c0,0-0.19,0.33-0.42,0.66
	c0.45-0.11,0.9-0.21,1.36-0.29c-0.02-0.04-0.03-0.05-0.07-0.14c-0.05-0.12-0.13-0.43-0.2-0.74c-0.07,0.01-0.18,0.02-0.33,0.02
	c-0.13,0-0.25-0.01-0.37-0.02c-0.54,0.18-1,0.41-1.52,0.77c-0.03,0.02-0.05,0.04-0.08,0.05c-0.08,0.02-0.14-0.01-0.15-0.09
	c-0.04-0.23,0.4-0.52,1.23-0.82c0.01,0,0.02-0.01,0.03-0.02c-0.09-0.04-0.16-0.07-0.16-0.11c0-0.03,0.03-0.05,0.08-0.06
	c0.09-0.02,0.28-0.01,0.49,0c0.16-0.07,0.28-0.14,0.33-0.18c0.02-0.02,0.04-0.03,0.06-0.03c0.06-0.02,0.11,0.01,0.13,0.08
	c0,0,0.01,0,0.01,0C19.7,1,19.75,1.06,19.76,1.15c0.02,0,0.06,0,0.07,0c-0.07-0.35-0.11-0.66-0.08-0.67c0.02,0,0.05,0.11,0.06,0.26
	c0.01,0.18,0.04,0.22,0.1,0.13c0.07-0.09,0.09-0.05,0.15,0.3c0.01,0.06,0.02,0.11,0.03,0.2c0.05,0.34,0.07,0.63,0.05,0.63
	s-0.01,0.11,0.03,0.23c0.02,0.05,0,0.04,0.01,0.07c1.93-0.34,3.84-0.42,5.7-0.26c-0.2-0.28-0.61-1.08-0.66-1.4
	c-0.01-0.08-0.01-0.13,0-0.13c0.03-0.01,0.12,0.18,0.28,0.54c0.13,0.29,0.3,0.63,0.37,0.73c0.06,0.09,0.11,0.19,0.12,0.27
	c0.14,0.01,0.27,0.03,0.41,0.04l0.1-0.04c0.02-0.01,0.04-0.02,0.05-0.02c0.06-0.01,0.1,0.02,0.13,0.08
	c1.11,0.14,2.19,0.36,3.25,0.65C29.94,2.69,29.96,2.63,30,2.62c0.06-0.01,0.11,0.03,0.12,0.07c0.01,0.05,0,0.09-0.01,0.13
	c0.08,0.02,0.17,0.04,0.25,0.06c0.02-0.02,0.07-0.03,0.15-0.05c0.15-0.03,0.22,0,0.15,0.06c-0.03,0.02-0.06,0.05-0.1,0.06
	c1.51,0.47,2.96,1.1,4.33,1.88c0.22-0.01,0.4,0,0.4,0l0.04,0.21c0.12-0.05,0.24-0.09,0.33-0.11c0.13-0.03,0.21-0.02,0.19,0.05
	c-0.02,0.06-0.13,0.15-0.29,0.24c1.29,0.8,2.51,1.73,3.61,2.77c0.14-0.08,0.29-0.14,0.43-0.16c0.12-0.02,0.23-0.01,0.32,0.04
	c0.17,0.1,0.18,0.28,0.12,0.45c0.15-0.05,0.27-0.13,0.55-0.31c0.3-0.19,0.61-0.33,0.85-0.37c0.03-0.01,0.06,0,0.09-0.01
	c-0.15-0.16-0.29-0.31-0.44-0.47c-0.38,0.2-0.88,0.42-0.97,0.16C40.04,7.13,40.5,7,40.85,6.93c-0.33-0.33-0.67-0.64-1.02-0.95
	c0.01,0.07,0.02,0.17,0.05,0.28c0.04,0.17,0.05,0.25,0.03,0.24c-0.01,0-0.02-0.02-0.03-0.05c-0.09-0.16-0.13-0.38-0.14-0.55
	c-0.52-0.45-1.07-0.89-1.62-1.29c-0.21,0.38-0.46,0.71-0.61,0.74c-0.19,0.03,0.05-0.48,0.28-0.98c-0.82-0.58-1.68-1.09-2.57-1.56
	c-0.02,0.02-0.05,0.03-0.08,0.04c-0.04,0.01-0.08,0-0.11-0.02c-0.05-0.03-0.03-0.07,0.02-0.1c-0.28-0.15-0.56-0.29-0.84-0.43
	c-1.6-0.76-3.3-1.33-5.05-1.72c-0.1,0.04-0.2,0.08-0.32,0.12c-0.06,0.02-0.11,0.03-0.16,0.05c0.01,0.15-0.19,0.31-0.45,0.36
	c-0.28,0.05-0.16-0.11-0.19-0.27c-0.03-0.16-0.19-0.26,0.07-0.31c0,0,0.01,0,0.01,0c0.05-0.04,0.1-0.09,0.18-0.13
	c-0.07-0.01-0.15-0.02-0.22-0.04l0,0.02c0,0-0.48,0.19-0.89,0.25c0.28-0.07,0.65-0.05,0.7,0.11c0.04,0.12-0.04,0.2-0.23,0.24
	C27.6,0.99,27.53,1,27.44,1.01c-0.29,0.02-0.55-0.04-0.57-0.15C26.86,0.8,26.9,0.74,26.98,0.7c-0.21,0.06-0.45,0.12-0.67,0.15
	l-0.8,0.12l0.65-0.25l0.5-0.18c-0.01-0.01-0.01-0.02-0.02-0.04l-0.51,0.05c-0.37,0.04-0.67,0.04-0.67-0.01
	c0-0.05,0.4-0.24,0.89-0.41C25.61,0.04,24.88,0.01,24.13,0c0,0.01,0,0.01,0,0.02c0.01,0,0.01,0,0.01,0.01c0,0-0.01,0.01-0.01,0.01
	c0.03,0.09,0.04,0.18,0.04,0.28c0,0.04-0.01,0.08-0.03,0.13c0.04,0.03,0.02,0.06-0.04,0.08c-0.16,0.36-0.59,0.9-0.93,1.2
	c-0.01,0.01-0.01,0.01-0.02,0.01c-0.15,0.13-0.28,0.21-0.36,0.21c-0.23-0.01,0.3-0.62,0.63-1.12c-0.17,0.1-0.45,0.2-0.68,0.25
	c-0.21,0.04-0.37,0.06-0.36-0.01c0-0.05,0.29-0.2,0.63-0.34c0.14-0.05,0.25-0.09,0.34-0.1c0.09-0.02,0.16-0.01,0.19,0.01
	c0.08-0.13,0.13-0.25,0.13-0.33c0-0.01-0.01-0.03-0.01-0.04c-0.14,0.05-0.28,0.09-0.41,0.11c-0.21,0.04-0.38,0.05-0.4,0
	c-0.02-0.09,0.27-0.23,0.63-0.3c0.05-0.01,0.09-0.02,0.13-0.02C23.65,0.04,23.64,0.02,23.63,0C22.38,0.03,21.11,0.14,19.84,0.36z
	 M22.51,0.48c0.02,0,0.04,0,0.06,0.03c0.04,0.06,0.03,0.11-0.03,0.12c-0.06,0.01-0.09-0.04-0.07-0.1
	C22.48,0.5,22.49,0.48,22.51,0.48z M25.31,0.43c0.01-0.01,0.04,0,0.06,0.03c0.05,0.06,0.04,0.12-0.01,0.14
	c-0.04,0.02-0.08-0.03-0.08-0.1C25.28,0.47,25.29,0.44,25.31,0.43z M27.06,0.2L26.9,0.26c0.03-0.01,0.05-0.01,0.08-0.01
	c0.08-0.01,0.16-0.02,0.25-0.02C27.18,0.22,27.12,0.21,27.06,0.2z M19.09,1.75c0.01-0.01,0.04,0.01,0.06,0.04
	c0.05,0.06,0.04,0.12-0.01,0.14c-0.04,0.02-0.07-0.03-0.07-0.1C19.07,1.79,19.08,1.76,19.09,1.75z M17,2.18
	c0.08-0.02,0.15-0.01,0.15,0.07c0,0.05-0.12,0.18-0.26,0.28c-0.07,0.05-0.12,0.07-0.16,0.08c-0.06,0.01-0.09-0.02-0.08-0.13
	C16.68,2.35,16.86,2.21,17,2.18z M24.6,0.99c0.16-0.03,0.32,0.14,0.36,0.37C25,1.6,24.91,1.82,24.75,1.84
	c-0.16,0.03-0.14-0.15-0.19-0.38C24.52,1.23,24.44,1.01,24.6,0.99z M15.4,2.64c0,0.02-0.02,0.04-0.06,0.05
	c-0.01,0-0.02-0.01-0.02-0.01c0,0.03,0.03,0.07,0.1,0.14C15.51,2.94,15.58,3,15.6,3c0.02,0,0.01-0.04-0.02-0.1
	c-0.05-0.05-0.1-0.11-0.11-0.17C15.45,2.69,15.42,2.65,15.4,2.64z M24.12,1.18c0.05-0.01,0.1,0.06,0.11,0.19
	c0.01,0.12-0.06,0.23-0.15,0.24c-0.13,0.01-0.15-0.03-0.11-0.19C24.01,1.27,24.06,1.19,24.12,1.18z M15.87,2.82
	c-0.02,0.01-0.05,0.13-0.06,0.37c-0.01,0.17-0.01,0.27,0,0.35c0.03-0.01,0.07-0.03,0.1-0.04c0.01-0.07,0.01-0.14,0.01-0.23
	C15.92,2.96,15.9,2.81,15.87,2.82z M10.19,4.47c-0.06,0.01-0.11,0.03-0.17,0.04C9.96,4.54,9.92,4.58,9.87,4.62
	c0.09-0.01,0.16-0.02,0.31-0.04c0.34-0.06,0.55-0.12,0.56-0.14c-0.01-0.01-0.04-0.01-0.11-0.01C10.51,4.42,10.35,4.44,10.19,4.47z
	 M10.03,5.05c0.01-0.01,0.02,0.04,0.03,0.16c0.01,0.16,0.04,0.26,0.09,0.26c0.04,0,0.03,0.12-0.04,0.24
	C10.07,5.77,10.03,5.81,10,5.82C9.95,5.83,9.91,5.76,9.84,5.59C9.72,5.28,9.73,5.26,9.85,5.3C9.93,5.33,10,5.25,10.02,5.14
	C10.02,5.08,10.03,5.06,10.03,5.05z M11.69,4.89c0.02,0,0.04,0,0.06,0.03c0.04,0.06,0.03,0.11-0.03,0.12
	c-0.06,0.01-0.1-0.04-0.08-0.1C11.64,4.91,11.67,4.9,11.69,4.89z M10.57,5.14c0.13-0.02,0.26,0.05,0.3,0.17
	c0.04,0.14-0.04,0.24-0.22,0.27c-0.18,0.03-0.29-0.04-0.3-0.18C10.35,5.28,10.44,5.17,10.57,5.14z M30.99,2.22
	c0.17-0.03,0.41-0.06,0.68-0.11c0.55-0.1,0.53-0.14,0.55-0.02c0.02,0.12,0.1,0.21-0.45,0.3c-0.55,0.1-1.02,0.08-1.04-0.04
	C30.72,2.29,30.82,2.25,30.99,2.22z M8.57,6.18c0.02,0,0.05,0.14,0.05,0.33c0,0.19-0.02,0.35-0.04,0.35c-0.02,0-0.05-0.14-0.05-0.33
	C8.52,6.34,8.55,6.18,8.57,6.18z M8.85,6.18C8.92,6.17,8.95,6.2,8.94,6.26c0,0,0,0.01,0,0.01c0.04,0.02,0.09,0.1,0.12,0.19
	c0.04,0.13,0,0.22-0.08,0.24C8.9,6.72,8.85,6.64,8.84,6.51c0-0.07,0-0.14,0.02-0.18c-0.02,0-0.03-0.01-0.05-0.02
	C8.76,6.25,8.78,6.2,8.85,6.18z M8.39,6.38c0.02,0,0.04,0.01,0.06,0.04c0.04,0.06,0.03,0.1-0.03,0.11C8.36,6.55,8.33,6.51,8.35,6.44
	C8.36,6.41,8.37,6.39,8.39,6.38z M9.43,6.27c0.01,0.01,0.06,0.09,0.13,0.19c0.11,0.17,0.12,0.18,0.03,0.21
	C9.53,6.69,9.48,6.6,9.45,6.48C9.43,6.36,9.42,6.27,9.43,6.27z M31.32,2.63c0.07-0.01,0.14,0.06,0.15,0.17
	c0,0.07-0.02,0.11-0.06,0.12c-0.07,0.01-0.17-0.06-0.19-0.18C31.2,2.69,31.24,2.64,31.32,2.63z M33.91,2.2
	c0.06-0.01,0.1,0.04,0.08,0.1c-0.01,0.03-0.04,0.05-0.05,0.05c-0.02,0-0.04,0-0.06-0.03C33.83,2.27,33.85,2.21,33.91,2.2z
	 M8.08,6.86c0.02,0,0.06,0.09,0.08,0.21c0.02,0.12,0,0.23-0.03,0.24c-0.04,0.01-0.07-0.1-0.08-0.22C8.04,6.97,8.06,6.87,8.08,6.86z
	 M33.4,2.5c0.04-0.02,0.07,0.03,0.07,0.1c0,0.04-0.01,0.06-0.02,0.07c-0.01,0.01-0.04,0-0.06-0.03C33.35,2.58,33.36,2.52,33.4,2.5z
	 M33.6,2.48c0.06-0.01,0.09,0.04,0.07,0.1c-0.01,0.03-0.02,0.06-0.04,0.06c-0.02,0-0.04-0.01-0.06-0.04
	C33.53,2.55,33.54,2.49,33.6,2.48z M7.45,7.23c0.02-0.01,0.04-0.01,0.06-0.01c0.04-0.01,0.09-0.01,0.13,0.01
	c0.07,0.04,0.02,0.1-0.11,0.13C7.41,7.38,7.35,7.33,7.41,7.27C7.42,7.25,7.44,7.24,7.45,7.23z M8.76,7
	c0.03-0.01,0.06-0.01,0.09-0.02c0.07-0.01,0.14-0.02,0.19,0C9.15,7.01,9.07,7.06,8.87,7.1c-0.2,0.04-0.28,0.01-0.19-0.05
	C8.7,7.03,8.73,7.01,8.76,7z M34.21,2.75c0.02-0.01,0.04,0,0.07,0.02c0.05,0.05,0.04,0.11-0.03,0.12c-0.07,0.02-0.11-0.02-0.09-0.09
	C34.17,2.76,34.19,2.75,34.21,2.75z M34.5,2.69c0.01-0.01,0.04-0.01,0.05-0.01c0.03-0.01,0.07-0.01,0.1,0.01
	c0.06,0.04,0.04,0.1-0.05,0.12c-0.09,0.02-0.15-0.02-0.12-0.08C34.49,2.72,34.49,2.7,34.5,2.69z M20.69,5.14
	c0.01,0.09,0,0.17-0.04,0.22c-0.1,0.14-0.44,0.2-0.58,0.1c-0.05-0.03-0.08-0.11-0.11-0.18c-0.41,0.09-0.81,0.2-1.2,0.31
	C18.88,5.64,18.97,5.71,19,5.8c0.15,0.46-0.99,0.48-0.99,0.48l-0.27-0.38c-0.96,0.33-1.88,0.73-2.75,1.2
	c0.14,0.21,0.29,0.54,0.17,0.73c-0.09,0.14-0.24-0.25-0.45-0.26c-0.19-0.01-0.46,0.36-0.51,0.32c-0.07-0.04-0.06-0.18,0-0.34
	c-0.54,0.32-1.06,0.66-1.56,1.03c0.28-0.06,0.53-0.1,0.67-0.11c0.07-0.03,0.12-0.06,0.15-0.09c0.06-0.05,0.1-0.09,0.13-0.1
	c0.05-0.02,0.08,0.03,0.08,0.15c0,0.18-0.38,0.38-0.79,0.48c-0.21,0.05-0.43,0.07-0.6,0.04c-0.06,0.01-0.11,0.02-0.17,0.03
	c-1.57,1.25-2.93,2.72-4.04,4.37c0.09,0.39,0.12,0.59,0.06,0.63c-0.01,0.01-0.03,0.01-0.04,0.01c-0.06,0-0.17-0.08-0.23-0.17
	c-0.03-0.04-0.03-0.04-0.04-0.07c-0.79,1.24-1.42,2.58-1.91,3.97c0.18-0.06,0.34-0.11,0.42-0.13c0.05-0.01,0.08-0.02,0.08,0
	c0.01,0.05-0.28,0.22-0.61,0.41c-0.14,0.42-0.27,0.86-0.38,1.29c0.13,0.05,0.22,0.15,0.21,0.3c0,0.18-0.18,0.37-0.4,0.5
	c-0.05,0.24-0.09,0.49-0.14,0.74l0.98-0.17c0.07-0.11,0.25-0.24,0.5-0.38c0.19-0.1,0.36-0.29,0.38-0.42
	c0.03-0.17,0.05-0.16,0.06,0.01c0.01,0.16,0.06,0.23,0.15,0.22c0.07-0.01,0.11-0.12,0.1-0.23c0-0.04,0.03-0.09,0.07-0.14
	c0.12-0.48,0.26-0.96,0.43-1.43c-0.45,0.16-0.9,0.31-1.03,0.33c-0.11,0.01-0.22,0.12-0.24,0.23c-0.01,0.07-0.03,0.11-0.04,0.12
	c-0.04,0.03-0.09-0.17-0.08-0.47c0-0.22,0.15-0.33,0.56-0.4c0.61-0.11,0.65-0.11,1.03-0.36c0.4-1.02,0.9-1.99,1.48-2.92
	c-0.05-0.12-0.1-0.24-0.11-0.32c-0.03-0.16,0.02-0.63,0.1-1.05c0.01-0.04,0.02-0.06,0.02-0.1c-0.04-0.01-0.07-0.02-0.07-0.02
	s-0.01-0.33,0.1-0.4c0.03-0.02,0.06-0.03,0.1-0.04c0.27-0.03,0.75,0.2,0.75,0.2s-0.36,0.18-0.47,0.24
	c-0.06,0.03-0.12,0.05-0.17,0.05c0,0.07-0.01,0.16-0.03,0.29c-0.05,0.29-0.09,0.6-0.07,0.71c0,0.03,0.04,0.08,0.05,0.12
	c0.08-0.12,0.16-0.24,0.25-0.36c0,0,0-0.01,0-0.01c-0.01-0.03-0.01-0.05,0.02-0.07c0.01,0,0.02,0,0.02,0.01
	c0.04-0.05,0.08-0.1,0.11-0.15c0,0,0-0.01,0-0.01c0-0.06,0.04-0.14,0.09-0.27c0.06-0.14,0.09-0.21,0.12-0.22
	c0.03-0.01,0.05,0.03,0.08,0.1c0.28-0.36,0.57-0.71,0.87-1.05c-0.3-0.06-0.56-0.12,0.1-0.1c0.03-0.03,0.05-0.06,0.08-0.09
	c-0.01-0.24-0.21-0.96-0.16-0.97c0.06-0.02,0.25,0.44,0.37,0.76c0.28-0.29,0.57-0.57,0.87-0.84c-0.18-0.05-0.32-0.12-0.36-0.23
	c-0.12-0.35,0.58-0.44,0.86-0.46c0-0.01,0-0.02,0.01-0.02c0.02-0.04,0.05-0.06,0.09-0.07c0.07-0.02,0.17,0,0.28,0.04
	c0.47-0.37,0.96-0.72,1.47-1.04c0-0.06,0.01-0.12,0.05-0.17c0.07-0.09,0.2-0.15,0.34-0.18c0.07-0.01,0.15-0.02,0.22-0.02
	c1.4-0.8,2.93-1.42,4.58-1.81l0.02-0.01c0.15-0.12,0.42-0.24,0.61-0.27l0.35-0.05l-0.25,0.17c0.09-0.02,0.17-0.03,0.26-0.05
	c0.75-0.13,1.49-0.21,2.23-0.24c0.01-0.08,0.03-0.13,0.07-0.14c0.04-0.01,0.08,0.04,0.11,0.13c0.28-0.01,0.56-0.01,0.84-0.01
	c-0.01-0.09-0.01-0.17,0.02-0.24c-0.26,0.06-0.62,0.04-0.62,0.04S23.93,6.31,24,6.2c0.08-0.11,0.19-0.15,0.28-0.17
	c0.09-0.02,0.17-0.01,0.17-0.01s0.13,0.28,0.09,0.4c0.02,0.04,0.03,0.08,0.05,0.15c0.02,0.08,0.03,0.16,0.04,0.24
	c0.06,0,0.12,0.01,0.18,0.01c0.03-0.04,0.06-0.07,0.09-0.07c0.1-0.01,0.12-0.01,0.1,0.07c0.52,0.03,1.03,0.1,1.55,0.18
	c0.02-0.16,0.2-0.39,0.45-0.55c0.09-0.06,0.25-0.12,0.46-0.19c0-0.01-0.01-0.01-0.01-0.02c-0.09-0.26,0.57-0.41,0.91-0.47
	c0.11-0.02,0.19-0.02,0.19-0.02l0.28-0.05l0.02,0.15c0,0-0.04,0.02-0.05,0.03c0.26-0.07,0.53-0.13,0.8-0.19
	C26.79,4.83,23.76,4.6,20.69,5.14z M34.82,2.97c0.07-0.02,0.12,0.01,0.1,0.08c-0.01,0.03-0.03,0.06-0.05,0.06
	c-0.02,0.01-0.05,0-0.08-0.03C34.73,3.03,34.75,2.99,34.82,2.97z M33.96,3.14c0.19-0.03,0.26,0,0.17,0.07
	c-0.05,0.03-0.11,0.06-0.17,0.07c-0.06,0.01-0.12,0-0.17-0.01C33.7,3.24,33.77,3.17,33.96,3.14z M34.64,3.12
	c0.2-0.05,0.54,0.58,0.65,0.66c0.11,0.07,0.15,0.32,0.07,0.42c-0.18,0.25-1,0.18-1,0.18l-0.07-0.42C34.29,3.96,34.4,3.18,34.64,3.12
	z M16.18,6.8c0.16-0.04,0.29-0.03,0.29,0.05c0,0.05-0.23,0.19-0.5,0.31c-0.08,0.03-0.14,0.06-0.2,0.08
	c-0.18,0.05-0.26,0.03-0.24-0.08C15.56,7.03,15.92,6.86,16.18,6.8z M21.75,6.14c0.02,0,0.06,0.09,0.08,0.2
	c0.02,0.11,0.08,0.24,0.14,0.29c0.06,0.05,0.05,0.11-0.02,0.14c-0.08,0.03-0.14-0.07-0.18-0.29C21.74,6.29,21.73,6.14,21.75,6.14z
	 M25.69,5.61c0.01-0.01,0.04,0,0.06,0.03c0.05,0.06,0.04,0.12-0.01,0.14c-0.04,0.02-0.07-0.03-0.07-0.1
	C25.67,5.64,25.67,5.62,25.69,5.61z M36.17,4.37c0.02,0,0.05,0.07,0.09,0.21C36.29,4.7,36.3,4.8,36.27,4.8
	c-0.03,0-0.02,0.11,0.02,0.23c0.04,0.12,0.04,0.22,0.02,0.22c-0.03,0-0.08-0.19-0.12-0.44C36.14,4.54,36.14,4.39,36.17,4.37z
	 M36.62,4.55c0.06-0.03,0.11,0.08,0.15,0.28c0.03,0.18,0.03,0.3-0.02,0.33c-0.01,0-0.01,0-0.02,0c-0.09,0-0.11-0.01-0.06-0.19
	c0.06-0.19,0.06-0.19-0.05-0.29C36.53,4.6,36.54,4.59,36.62,4.55z M30.38,5.95l-0.62,0.19L30.51,6C30.47,5.98,30.42,5.97,30.38,5.95
	z M28.87,6.43l-1.04,0.29c-0.38,0.11-0.74,0.22-0.96,0.32c0.11,0.02,0.22,0.05,0.33,0.07c0.19-0.09,0.4-0.19,0.64-0.28L28.87,6.43z
	 M31.27,6.29C30.72,6.48,29.89,6.8,29.4,7c-0.34,0.14-0.73,0.25-1.11,0.35c0.17,0.04,0.34,0.08,0.51,0.13
	c0.04-0.01,0.09-0.02,0.12-0.02c0.26-0.04,0.47-0.04,0.48,0.05c0,0.05-0.03,0.1-0.08,0.14c0.5,0.16,0.98,0.35,1.46,0.55
	c-0.02-0.13-0.01-0.24,0.01-0.25c0.02,0,0.05,0.04,0.06,0.1c0.01,0.04,0,0.12,0,0.18c0.03,0.01,0.06,0.02,0.09,0.04
	c0-0.03-0.01-0.06-0.01-0.11C30.93,8.04,30.96,7.93,31,7.93c0.06-0.01,0.06,0.02,0.04,0.22c-0.01,0.07-0.02,0.12-0.03,0.15
	c0.21,0.09,0.42,0.19,0.63,0.29c0.01-0.05,0.03-0.11,0.08-0.21c0.02-0.04,0.04-0.05,0.05-0.05c0.03,0,0.06,0.03,0.07,0.12
	c0.02,0.09,0,0.18-0.05,0.22c0.44,0.22,0.86,0.46,1.28,0.72c0.07-0.07,0.17-0.15,0.27-0.2c0.17-0.08,0.4-0.27,0.51-0.41
	c0.12-0.15,0.44-0.33,0.99-0.55C33.74,7.46,32.54,6.82,31.27,6.29z M3.88,11.28c0.01-0.01,0.03,0,0.05,0.03
	c0.05,0.06,0.05,0.12,0,0.14c-0.04,0.02-0.08-0.03-0.08-0.1C3.85,11.31,3.87,11.29,3.88,11.28z M31.22,6.74
	c0.04-0.01,0.07,0.1,0.08,0.22c0.01,0.12,0,0.22-0.02,0.23c-0.02,0-0.06-0.09-0.08-0.21C31.18,6.86,31.18,6.75,31.22,6.74z
	 M30.73,6.96c0.18-0.04,0.33-0.03,0.34,0.05c0.02,0.13-0.4,0.3-1.26,0.5c-0.11,0.03-0.23-0.02-0.26-0.09
	c-0.03-0.08,0.12-0.18,0.33-0.23c0.21-0.05,0.56-0.13,0.78-0.2C30.68,6.98,30.7,6.97,30.73,6.96z M5.04,11.62
	c0.05-0.02,0.09,0.06,0.12,0.26c0.03,0.18,0.05,0.4,0.04,0.48c0,0.02-0.01,0.03-0.02,0.03c-0.01,0.02-0.03-0.03-0.04-0.13
	c-0.02-0.13-0.06-0.2-0.07-0.17c-0.01,0.03-0.05-0.04-0.08-0.16c-0.03-0.12-0.01-0.26,0.03-0.3C5.03,11.63,5.03,11.62,5.04,11.62z
	 M37.71,6.01c0.02,0,0.05,0.09,0.06,0.21c0.01,0.12-0.01,0.24-0.03,0.24c-0.02,0-0.05-0.1-0.06-0.22
	C37.67,6.12,37.69,6.01,37.71,6.01z M37.86,6.01c0.01,0,0.02,0,0.02,0c0.04,0,0.06,0.04,0.06,0.11c0,0.04-0.02,0.06-0.03,0.07
	c-0.01,0.01-0.04-0.01-0.06-0.04C37.8,6.07,37.81,6.02,37.86,6.01z M3.07,12.29c-0.01,0.02-0.02,0.06-0.03,0.08
	c0.04,0.1,0.07,0.17,0.11,0.17c-0.02-0.04-0.03-0.1-0.05-0.16C3.08,12.35,3.07,12.32,3.07,12.29z M31.6,7.34
	c0.28-0.05,0.51,0,0.53,0.12c0.02,0.12-0.13,0.63-0.4,0.68c-0.28,0.05-0.58-0.38-0.6-0.5C31.11,7.52,31.33,7.39,31.6,7.34z
	 M2.87,12.67c-0.02,0.04-0.04,0.07-0.06,0.11c0.01,0.06,0.02,0.12,0.03,0.17c0.03-0.04,0.08-0.07,0.13-0.11
	C2.93,12.8,2.9,12.74,2.87,12.67z M2.76,12.87c-0.08,0.16-0.17,0.31-0.25,0.47c0.1,0.24,0.29,0.11,0.26-0.22
	c0-0.04,0.01-0.07,0.02-0.11c-0.01-0.03-0.02-0.07-0.03-0.1C2.77,12.89,2.77,12.88,2.76,12.87z M3.65,14.03
	c0.02-0.02,0.05,0.05,0.1,0.21c0.04,0.12,0.04,0.22,0.02,0.22c-0.03,0-0.02,0.1,0.02,0.22c0.04,0.12,0.04,0.23,0.02,0.23
	c-0.03,0-0.09-0.19-0.13-0.44C3.63,14.21,3.63,14.05,3.65,14.03z M35.33,8.56c-0.15,0.08-0.23,0.11-0.52,0.26
	c-0.39,0.21-0.65,0.37-0.97,0.6c0.02,0.09,0.02,0.16-0.33,0.24c0.69,0.45,1.33,0.96,1.94,1.51c0.04-0.01,0.08-0.02,0.11-0.03
	c0.25-0.05,0.44-0.06,0.44,0c0,0.02-0.07,0.05-0.17,0.09c0.13,0,0.26,0.01,0.26,0.01l0.05,0.26c0.01,0,0.03-0.01,0.04-0.01
	c0.1-0.02,0.15-0.02,0.15,0.01c0,0.02-0.07,0.07-0.17,0.13l0.04,0.25c0.55,0.55,1.07,1.14,1.54,1.77c0.17,0.02,0.31,0.1,0.32,0.21
	c0.01,0.06-0.02,0.11-0.06,0.16c0.15,0.21,0.29,0.44,0.44,0.66c0.03,0.01,0.06,0.02,0.07,0.04c0.01,0.02,0.01,0.03,0,0.05
	c0.03,0.05,0.07,0.11,0.1,0.16l2.06-0.36c-0.18-0.32-0.37-0.63-0.57-0.93l-0.01,0c0,0-0.03-0.03-0.05-0.08c0-0.01,0-0.01,0-0.02
	c-0.16-0.24-0.32-0.46-0.48-0.69c-0.02-0.01-0.03-0.02-0.03-0.05c-0.27-0.37-0.56-0.73-0.85-1.08c-0.06,0.17-0.19,0.33-0.36,0.43
	c-0.27,0.15-0.68,0.14-0.83-0.07c-0.01,0-0.02,0-0.02,0c-0.17,0.05-0.23,0-0.26-0.14c-0.03-0.19,0.08-0.31,0.49-0.47
	c0.16-0.12,0.35-0.21,0.53-0.23c0.02,0,0.03-0.01,0.04-0.01C37.38,10.24,36.39,9.34,35.33,8.56z M9.63,13.39
	c0.01,0.02,0.02,0.03,0.03,0C9.65,13.4,9.64,13.39,9.63,13.39z M9.59,13.44c-0.04,0-0.08,0.16-0.1,0.35
	c-0.02,0.22-0.01,0.32,0.01,0.32c0.02,0,0.07-0.12,0.1-0.34C9.64,13.55,9.64,13.44,9.59,13.44z M41.84,7.97
	c-0.03,0.04-0.07,0.07-0.11,0.08c-0.11,0.03-0.27,0.1-0.35,0.16c-0.11,0.08-0.86,0.36-1.45,0.55c0.24,0.26,0.48,0.51,0.71,0.78
	c0,0,0.01-0.01,0.01-0.01c0.01-0.07,0.03-0.12,0.04-0.12c0.02-0.01,0.04,0.05,0.07,0.15c0.04,0.16,0.11,0.2,0.18,0.12
	c0.06-0.07,0.3-0.22,0.53-0.32c0.39-0.17,0.41-0.16,0.31,0.16c-0.06,0.19-0.32,0.37-0.73,0.52c0.08,0.09,0.17,0.18,0.24,0.28
	c0-0.02,0-0.03,0.01-0.04c0.03-0.04,0.09-0.07,0.16-0.09c0.22-0.06,0.55-0.02,0.55-0.02l0.07,0.42l-0.66-0.06
	c0.3,0.39,0.6,0.8,0.87,1.21c0.04-0.02,0.09-0.04,0.12-0.04c0.08-0.01,0.12,0.03,0.11,0.11c-0.01,0.05-0.05,0.09-0.1,0.14
	c0.51,0.78,0.98,1.59,1.39,2.44c0.05-0.46,0.29-1.33,0.18-1.59c-0.16-0.37-0.66-0.5-0.37-0.63c0.04-0.02,0.07-0.02,0.11-0.03
	c0.18-0.03,0.36,0.05,0.5,0.19c0.01-0.03,0.02-0.06,0.04-0.09c0.01-0.02,0.01-0.03,0.03-0.04c0,0,0.01,0,0.01,0
	c0.02,0,0.05,0.04,0.06,0.11c0.01,0.07,0,0.13-0.01,0.17c0.03,0.04,0.06,0.09,0.08,0.14c0.15,0.35-0.22,1.78-0.51,2.03
	c0.44,0.93,0.81,1.91,1.12,2.92c0.01-0.04,0.03-0.07,0.07-0.08c0.08-0.01,0.15,0.06,0.15,0.2c0.01,0.12-0.03,0.23-0.08,0.24
	c-0.02,0-0.03-0.02-0.05-0.03c0.06,0.21,0.11,0.43,0.17,0.64c0.06-0.04,0.16-0.09,0.3-0.15c0.26-0.11,0.5-0.19,0.69-0.23
	c0.18-0.04,0.31-0.03,0.34,0.03c0.05,0.11-0.35,0.22-0.86,0.44c-0.23,0.1-0.33,0.16-0.39,0.19c0.11,0.46,0.22,0.92,0.3,1.4
	c0.19,1.07,0.29,2.13,0.33,3.18l0.56-0.09c0,0,0.01,0.02,0.01,0.02c0.03-0.02,0.05-0.04,0.08-0.07c0.08-0.07,0.14-0.11,0.18-0.12
	c0.06-0.02,0.07,0.05,0.07,0.21c0,0.17-0.06,0.34-0.14,0.37c-0.07,0.03-0.32,0.15-0.55,0.28c-0.08,0.04-0.15,0.06-0.22,0.08
	c0,1.6-0.17,3.17-0.5,4.7c0.31-0.18,0.68-0.44,0.9-0.67c0.34-0.34,0.84-0.68,1.35-0.96c0.02-0.14,0.04-0.28,0.05-0.43
	c-0.16,0.07-0.29,0.13-0.29,0.13l-0.25,0.11l-0.07-0.14c0,0,0.32-0.33,0.65-0.56c0.06-0.67,0.1-1.35,0.1-2.03
	c-0.04-0.04-0.04-0.08,0-0.1c0-0.34,0-0.67-0.02-1.01c-0.1,0.07-0.22,0.13-0.34,0.16c-0.04,0.01-0.07,0.02-0.11,0.02
	c-0.39,0.03-0.42,0.01-0.33-0.23c0.03-0.08,0.16-0.15,0.31-0.22c-0.02-0.02-0.05-0.05-0.06-0.09c-0.05-0.16,0.14-0.37,0.46-0.58
	c-0.01-0.09-0.02-0.19-0.03-0.28c-0.16,0.08-0.28,0.16-0.31,0.19c-0.01,0.02-0.04,0.03-0.06,0.03c-0.06,0.02-0.15-0.01-0.24-0.07
	c-0.21-0.14-0.21-0.16,0.11-0.37c0.15-0.1,0.31-0.19,0.45-0.27c-0.06-0.51-0.13-1.02-0.22-1.53c-0.28-1.61-0.72-3.15-1.29-4.61
	c-0.11-0.02-0.16-0.06-0.15-0.11c0-0.02,0.03-0.05,0.07-0.08c-0.89-2.22-2.11-4.26-3.56-6.07c-0.06,0.06-0.12,0.11-0.16,0.11
	c-0.02,0-0.04-0.01-0.05-0.02c-0.04-0.07,0-0.17,0.06-0.27C42.32,8.51,42.09,8.24,41.84,7.97z M8,14.26c0.02,0,0.05,0,0.08,0.01
	c0.2,0.04,0.83,0.14,0.76,0.45c-0.03,0.14-0.37,0.08-0.56,0.21c-0.24,0.16-0.34,0.5-0.45,0.47c-0.03-0.01-0.06-0.02-0.08-0.04
	c0,0.17-0.04,0.23-0.15,0.25c-0.12,0.02-0.17-0.02-0.22-0.21c-0.01,0.01-0.01,0.03-0.02,0.05c-0.05,0.08-0.05,0.21,0.02,0.46
	c0.04,0.17,0.05,0.26,0.03,0.25c-0.01,0-0.02-0.02-0.03-0.05c-0.15-0.29-0.19-0.79-0.06-0.78c0.02,0,0.04,0,0.05,0
	c-0.01-0.04-0.02-0.09-0.02-0.13c-0.07-0.38-0.05-0.44,0.12-0.47c0.06-0.01,0.11-0.01,0.14,0.01c0.06-0.22,0.18-0.4,0.33-0.45
	C7.95,14.27,7.98,14.26,8,14.26z M42.37,8.91c0,0,0.01,0,0.01,0c0.01,0,0.03,0.05,0.04,0.13c0.02,0.13,0.01,0.23-0.01,0.24
	c-0.02,0-0.05-0.03-0.06-0.09c-0.01-0.05-0.01-0.17,0-0.25C42.36,8.92,42.37,8.91,42.37,8.91z M2.99,17.33
	c-0.05,0.03-0.09,0.07-0.13,0.11c-0.04,0.05-0.1,0.09-0.17,0.13l0.24,0.02C2.95,17.5,2.97,17.41,3,17.32
	C2.99,17.33,2.99,17.32,2.99,17.33z M7.67,16.85c0.02,0,0.05,0.01,0.07,0.01c0.16,0.03,0.07,0.19,0.02,0.42
	c-0.05,0.23-0.06,0.47-0.21,0.43c-0.16-0.03-0.24-0.25-0.19-0.49c0.04-0.18,0.14-0.31,0.26-0.35C7.63,16.87,7.65,16.85,7.67,16.85z
	 M42.65,11.56c0.01-0.01,0.03,0,0.04-0.01c0.06-0.01,0.09,0.03,0.07,0.09c-0.01,0.03-0.02,0.06-0.04,0.06
	c-0.02,0-0.04-0.01-0.06-0.04C42.62,11.62,42.62,11.58,42.65,11.56z M39.6,13.79c0.06-0.01,0.11,0.12,0.14,0.38
	c0.04,0.3,0.02,0.51-0.04,0.5c-0.02,0-0.05-0.03-0.07-0.09C39.53,14.33,39.51,13.81,39.6,13.79z M39.17,13.88
	c0.02,0,0.04,0.07,0.05,0.22c0.01,0.12-0.02,0.23-0.06,0.24c-0.06,0.01-0.06-0.02-0.04-0.22C39.14,13.96,39.15,13.88,39.17,13.88z
	 M39.34,14.55c0.01-0.01,0.03,0,0.05,0.03c0.05,0.06,0.05,0.12,0,0.14c-0.04,0.02-0.08-0.03-0.08-0.1
	C39.31,14.58,39.32,14.56,39.34,14.55z M7.19,20.38c-0.05,0.04-0.12,0.08-0.18,0.12l0.17-0.03C7.18,20.44,7.19,20.41,7.19,20.38z
	 M44.93,14.02c0.01-0.01,0.04,0,0.06,0.03c0.05,0.06,0.04,0.12-0.01,0.14c-0.04,0.02-0.07-0.03-0.07-0.1
	C44.91,14.05,44.91,14.03,44.93,14.02z M0.58,21.98c0.01-0.01,0.02,0,0.03-0.01c0.06-0.01,0.09,0.03,0.07,0.09
	c-0.01,0.03-0.02,0.06-0.04,0.06c-0.02,0-0.04-0.01-0.06-0.04C0.54,22.05,0.55,22.01,0.58,21.98z M45.12,15.59
	c0.02,0,0.04,0,0.06,0.03c0.04,0.06,0.03,0.11-0.03,0.12c-0.06,0.01-0.1-0.04-0.08-0.1C45.07,15.61,45.1,15.59,45.12,15.59z
	 M46.21,15.8l0.64,0.93c-0.32-0.04-0.5-0.3-0.77-0.3l-0.9,0L46.21,15.8z M45.36,16c0.04-0.01,0.08,0,0.11,0.02
	c0.06,0.04,0.01,0.1-0.11,0.11c-0.12,0.02-0.17-0.01-0.11-0.08C45.28,16.03,45.32,16,45.36,16z M45.03,17.06
	c0.06-0.01,0.09,0.04,0.07,0.1c-0.01,0.03-0.02,0.06-0.04,0.06c-0.02,0-0.04-0.01-0.06-0.04C44.96,17.12,44.97,17.07,45.03,17.06z
	 M0.22,25.14c0.05-0.02,0.1-0.01,0.14,0.02c0.06,0.04,0.02,0.09-0.1,0.11c-0.12,0.02-0.18-0.02-0.12-0.08
	C0.16,25.16,0.19,25.15,0.22,25.14z M0.84,25.57c0.02-0.01,0.05-0.01,0.08-0.01c0.15-0.02,0.35,0.02,0.4,0.13
	c0.03,0.07-0.08,0.15-0.23,0.18c-0.16,0.03-0.3-0.04-0.33-0.14C0.73,25.66,0.76,25.6,0.84,25.57z M0.24,25.82
	c0.02,0,0.04,0.01,0.06,0.04c0.04,0.06,0.03,0.11-0.03,0.12c-0.06,0.01-0.09-0.04-0.07-0.1C0.21,25.85,0.22,25.82,0.24,25.82z
	 M46.96,17.77c0.02,0,0.04,0,0.06,0.03c0.04,0.06,0.03,0.11-0.03,0.12c-0.06,0.01-0.09-0.04-0.07-0.1
	C46.93,17.79,46.94,17.77,46.96,17.77z M0.43,26.17l0.75,0.07c0,0,0.12,0.12,0.04,0.23c-0.13,0.18-0.71,0.13-0.71,0.13L0.43,26.17z
	 M47.05,18.2c0.02-0.01,0.04,0.01,0.07,0.03c0.05,0.05,0.04,0.11-0.03,0.12c-0.07,0.02-0.11-0.02-0.09-0.09
	C47.01,18.23,47.03,18.21,47.05,18.2z M46.37,20.05l0.75-0.1c0,0,0.14,0.1,0.09,0.22c-0.08,0.2-0.68,0.28-0.68,0.28L46.37,20.05z
	 M47.95,22.61c-0.1,0.05-0.19,0.09-0.23,0.13c0.08-0.02,0.16-0.04,0.24-0.05C47.95,22.66,47.95,22.63,47.95,22.61z M2.82,30.83
	c0.03,0,0.05,0,0.08,0.03c0.05,0.05,0.03,0.1-0.05,0.12c-0.08,0.01-0.12-0.03-0.09-0.09C2.77,30.86,2.79,30.84,2.82,30.83z
	 M2.03,31.18c0.11-0.02,0.19-0.01,0.19,0.06c0,0.05-0.15,0.16-0.33,0.26c-0.05,0.03-0.09,0.04-0.13,0.05
	c-0.11,0.04-0.18,0.01-0.16-0.09C1.61,31.34,1.85,31.21,2.03,31.18z M2.34,31.14c0.01-0.01,0.04,0.01,0.06,0.04
	c0.05,0.06,0.04,0.12-0.01,0.14c-0.04,0.02-0.07-0.03-0.07-0.1C2.32,31.18,2.33,31.15,2.34,31.14z M47.05,23.45
	c0.05-0.02,0.09,0.08,0.14,0.38c0.06,0.34,0.06,0.47-0.02,0.48c-0.07,0.01-0.12-0.1-0.16-0.38c-0.03-0.21-0.02-0.43,0.02-0.47
	C47.03,23.46,47.04,23.45,47.05,23.45z M1.43,31.54c0.02,0,0.04,0.01,0.06,0.04c0.04,0.06,0.03,0.1-0.03,0.11
	C1.4,31.7,1.37,31.66,1.39,31.6C1.4,31.56,1.41,31.54,1.43,31.54z M47.34,23.44c0.02,0,0.05,0.03,0.09,0.11
	c0.11,0.2,0.1,0.22-0.01,0.25c-0.09,0.02-0.13-0.04-0.12-0.22C47.3,23.48,47.32,23.45,47.34,23.44z M47.45,24.06
	c0.02,0,0.04,0.01,0.06,0.04c0.04,0.06,0.03,0.1-0.03,0.11c-0.06,0.01-0.1-0.03-0.08-0.09C47.41,24.09,47.43,24.06,47.45,24.06z
	 M47.35,24.28c0.09-0.02,0.16,0.02,0.18,0.1c0.02,0.1-0.1,0.2-0.26,0.22c-0.34,0.04-0.34-0.08-0.01-0.28
	C47.3,24.3,47.32,24.29,47.35,24.28z M46.12,24.83c0.04-0.02,0.07,0.03,0.07,0.1c0,0.04-0.01,0.06-0.02,0.07
	c-0.01,0.01-0.04,0-0.06-0.03C46.06,24.9,46.07,24.85,46.12,24.83z M46.4,24.79c0.06-0.01,0.09,0.04,0.07,0.1
	c-0.01,0.03-0.02,0.06-0.04,0.06c-0.02,0-0.04-0.01-0.06-0.04C46.33,24.86,46.34,24.8,46.4,24.79z M46.84,24.73
	c0.08-0.01,0.12,0.03,0.09,0.09c-0.02,0.03-0.04,0.05-0.06,0.05c-0.03,0-0.05,0-0.08-0.03C46.73,24.8,46.75,24.75,46.84,24.73z
	 M4.03,33.33C4,33.34,3.98,33.35,3.95,33.36c-0.23,0.07-0.43,0.23-0.46,0.36c-0.01,0.06-0.03,0.1-0.04,0.11
	c-0.02,0.02-0.04-0.02-0.07-0.14c-0.04-0.16-0.11-0.2-0.18-0.12c-0.04,0.05-0.18,0.12-0.33,0.2c0,0,0,0.01,0,0.01
	c0.14,0.11,0.18,0.36,0.1,0.62c-0.07,0.23-0.23,0.4-0.38,0.44c0.04,0.07,0.08,0.14,0.11,0.21c0.02-0.01,0.04-0.02,0.06-0.03
	c0.08-0.05,0.49-0.21,0.93-0.37c0.01-0.1,0.03-0.2,0.06-0.31c0.09-0.27,0.23-0.47,0.34-0.49c0.02,0,0.03,0,0.04,0
	c0.04,0.01,0.15,0.09,0.26,0.2C4.27,33.83,4.14,33.58,4.03,33.33z M46.48,26.25c0,0,0.01,0,0.01,0c0.03,0,0.06,0.04,0.09,0.1
	c0.07,0.14,0.07,0.19-0.02,0.21c-0.13,0.03-0.17-0.07-0.11-0.27C46.46,26.26,46.47,26.25,46.48,26.25z M7.34,33.45
	c0.11,0.2,0.23,0.4,0.35,0.59C7.8,34,7.83,33.99,7.94,33.96c0.38-0.11,0.7-0.24,0.72-0.28c0-0.01,0.02-0.01,0.04-0.02
	c0.05-0.02,0.16-0.01,0.28,0.01c0.47,0.11,0.28,0.4-0.34,0.51c-0.21,0.04-0.48,0.1-0.74,0.18c0.17,0.26,0.34,0.5,0.52,0.75
	c0.15-0.06,0.27-0.09,0.27-0.09l0.33,0.27c0.02-0.01,0.03-0.03,0.05-0.03c0.1-0.03,0.14-0.13,0.1-0.26c-0.04-0.13,0-0.23,0.09-0.26
	c0.09-0.03,0.43-0.13,0.75-0.23c0.1-0.03,0.21-0.07,0.3-0.11c-0.05-0.07-0.1-0.13-0.15-0.2c-0.2,0.08-0.39,0.1-0.49-0.05
	c-0.03-0.05-0.05-0.11-0.05-0.18c-0.18-0.01-0.3-0.06-0.3-0.14c0-0.11,0.15-0.22,0.37-0.31c-0.1-0.15-0.2-0.3-0.29-0.45l-0.96,0.17
	c0,0.01,0,0.02,0.01,0.03c0,0.07-0.05,0.14-0.12,0.17c-0.02,0.01-0.05,0.01-0.08,0.01c-0.11,0.01-0.18-0.02-0.15-0.07
	c0.02-0.04,0.05-0.07,0.08-0.1L7.34,33.45z M40.84,27.54c-0.32,1.53-0.85,2.99-1.56,4.36c0,0,0.01,0,0.01,0
	c0.27-0.04,0.43-0.04,0.35,0.06c-0.22,0.25-0.36,0.37-0.66,0.49c-0.6,1.06-1.3,2.05-2.11,2.96c0.35-0.14,0.72-0.31,0.83-0.38
	c0.11-0.08,0.69-0.28,1.3-0.45c0.48-0.14,0.93-0.3,1.24-0.42c0.25-0.39,0.49-0.8,0.7-1.21c0-0.22,0.15-0.48,0.35-0.69
	c0.13-0.27,0.25-0.55,0.37-0.82c-0.01,0-0.02,0.01-0.03,0.02c-0.33,0.11-0.54,0.16-0.68,0.18c-0.24,0.04-0.27-0.04-0.31-0.26
	c-0.05-0.31-0.05-0.34,0.04-0.14c0.07,0.17,0.12,0.18,0.15,0.04c0.01-0.07,0.16-0.15,0.35-0.23c-0.13-0.4-0.16-0.42-0.35-0.16
	c-0.11,0.15-0.26,0.22-0.32,0.14c-0.06-0.08,0.06-0.27,0.27-0.45c0.01-0.01,0.02-0.01,0.03-0.02c-0.17,0.01-0.33-0.04-0.35-0.18
	c-0.02-0.12,0.06-0.24,0.19-0.27c0.12-0.03,0.25-0.12,0.29-0.18c0.08-0.13,0.57-0.35,1.5-0.68c0.19-0.67,0.35-1.36,0.47-2.06
	L40.84,27.54z M46.55,26.8c0.04-0.02,0.09,0.04,0.08,0.11c0,0.04-0.02,0.05-0.03,0.06c-0.01,0.01-0.03,0-0.05-0.03
	C46.51,26.87,46.5,26.82,46.55,26.8z M4.77,34.76c-0.03,0.01-0.05,0.02-0.08,0.02c-0.67,0.12-0.63,0.09-1.14,0.42
	c-0.2,0.13-0.41,0.23-0.6,0.3c0.33,0.61,0.69,1.2,1.07,1.77c0.01,0,0.01,0,0.02,0c0.09-0.02,0.13,0.02,0.17,0.13
	c0.04,0.01,0.04,0.02,0.08,0.03c0.05-0.08,0.03-0.21-0.02-0.44c-0.04-0.16-0.06-0.25-0.04-0.25c0.01,0,0.02,0.01,0.04,0.05
	c0.11,0.21,0.16,0.52,0.13,0.68c0.05,0.02,0.17,0.06,0.17,0.06l0.26,0.08l-0.04,0.14c0,0-0.21,0.01-0.44,0.01
	c0.53,0.75,1.09,1.47,1.7,2.15c0.07-0.04,0.14-0.06,0.2-0.08c0.07-0.01,0.13-0.02,0.19-0.01c0.27,0.05,0.26,0.41,0.2,0.72
	c0.34,0.36,0.71,0.7,1.07,1.04c-0.05-0.06-0.04-0.12,0.01-0.14c0.04-0.02,0.08,0.03,0.08,0.1c0,0.04-0.02,0.06-0.03,0.07
	c-0.01,0-0.01,0.01-0.02,0c0.76,0.7,1.56,1.37,2.4,1.96c0.01-0.01,0.01-0.03,0.02-0.05l0.08-0.12l-0.13-0.15
	c-0.11-0.12-0.1-0.15,0.05-0.18c0.15-0.03,0.18,0,0.14,0.16c-0.05,0.19-0.04,0.21,0.06,0.2c0.08,0,0.1,0.07,0.1,0.26
	c0,0.04-0.01,0.06-0.02,0.09c0,0,0,0.01,0,0.01c0.12,0.08,0.24,0.15,0.36,0.22c0.01-0.02,0.02-0.02,0.04-0.03
	c0.02-0.01,0.04,0.01,0.07,0.03c0.03,0.03,0.04,0.07,0.02,0.09c0.38,0.25,0.77,0.48,1.17,0.71c0.19-0.13,0.56-0.18,0.74-0.2
	c0,0,0.01-0.01,0.01-0.01c0.02-0.04,0.05-0.07,0.09-0.08c0.29-0.08,1.04,0.45,1.04,0.45l0.23,0.14l-0.08,0.11
	c0,0-0.47-0.08-0.85-0.22l0.18,0.22c0.01-0.01,0.03-0.03,0.05-0.03c0.06-0.01,0.1,0.04,0.08,0.1c-0.01,0.02-0.02,0.04-0.03,0.05
	c0,0,0,0.01,0,0.01c0,0-0.04,0-0.05,0c-0.05,0-0.2,0.01-0.38,0.01c0.47,0.24,0.96,0.46,1.45,0.67c0.12-0.06,0.25-0.16,0.32-0.27
	c0.08-0.13,0.33-0.39,0.54-0.57c0.21-0.18,0.42-0.39,0.45-0.46c0.02-0.03,0.02-0.05,0.03-0.05c0.02,0,0.03,0.06,0.03,0.16
	c0,0.13-0.22,0.43-0.49,0.68c-0.24,0.23-0.48,0.5-0.57,0.64c0.35,0.15,0.7,0.28,1.06,0.41c0.02-0.02,0.04-0.06,0.07-0.09
	c-0.01-0.01-0.02,0-0.02-0.01c-0.05-0.06-0.04-0.12,0.01-0.14c0.04-0.02,0.08,0.02,0.08,0.09c0.17-0.21,0.41-0.57,0.46-0.68
	c0.01-0.02,0.02-0.03,0.03-0.04c0.02-0.02,0.04,0.03,0.04,0.13c0.01,0.13-0.07,0.32-0.18,0.43c-0.1,0.1-0.21,0.27-0.25,0.39
	c2.79,0.97,5.79,1.42,8.86,1.28c-0.01-0.01-0.01-0.02-0.02-0.04c-0.1-0.27-0.11-0.51-0.03-0.53c0.05-0.01,0.11,0.13,0.14,0.32
	c0.02,0.11,0.02,0.18,0.02,0.24c0.17-0.01,0.35-0.02,0.52-0.03c-0.01-0.03,0.02-0.05,0.06-0.06c0.06-0.01,0.11,0.01,0.11,0.06
	c0.2-0.02,0.4-0.04,0.61-0.06c0,0,0-0.01,0-0.01c-0.02-0.13-0.02-0.24,0-0.25c0.02,0,0.06,0.03,0.07,0.08c0.01,0.04,0,0.11,0,0.17
	c0.55-0.06,1.09-0.13,1.64-0.23c0.75-0.13,1.48-0.31,2.2-0.51c0.11-0.05,0.23-0.1,0.36-0.16c0.32-0.14,0.72-0.35,0.9-0.48
	c0.21-0.16,0.75-0.32,1.25-0.4c0.25-0.04,0.49-0.07,0.67-0.08c0,0,0.01,0,0.01,0c1.06-0.46,2.07-0.99,3.04-1.59
	c-0.08-0.06-0.12-0.13-0.12-0.24c0.02-0.32,0.46-0.64,0.88-0.75c0.06-0.02,0.12-0.02,0.18-0.03c0.15-0.02,0.29,0,0.39,0.07
	c0.02,0.01,0.04,0.02,0.05,0.03c0.39-0.28,0.77-0.57,1.15-0.87c-0.01,0-0.03,0.02-0.04,0.02c-0.16,0.03-0.29-0.03-0.29-0.11
	c0-0.01,0.01-0.02,0.01-0.02c-0.13,0.04-0.28,0.06-0.39,0.05c-0.14-0.02-0.03-0.07,0.26-0.12c0.08-0.01,0.15-0.03,0.2-0.03
	c0.05-0.05,0.13-0.09,0.2-0.11c0.12-0.03,0.25,0,0.26,0.1c0,0.02-0.01,0.04-0.01,0.06c0.07-0.06,0.14-0.11,0.21-0.16
	c-0.03-0.01-0.04-0.04-0.05-0.09c-0.01-0.13,0.06-0.24,0.16-0.26c0.1-0.02,0.18,0.01,0.18,0.05c0,0.02-0.01,0.04-0.02,0.07
	c2.28-2,4.15-4.41,5.53-7.1c0,0-1.01,0.1-1.42-0.14c-0.02,0.02-0.06,0.03-0.11,0.04c-0.11,0.02-0.15-0.01-0.11-0.08
	c0.02-0.03,0.05-0.05,0.09-0.06c0.01,0,0.01,0,0.02,0c-0.02-0.02-0.04-0.04-0.04-0.07c-0.08-0.23,0.17-0.35,0.44-0.42
	c0.27-0.06,0.55-0.08,0.55-0.08l0.59,0.8c0.23-0.45,0.45-0.9,0.66-1.36c-0.02-0.05-0.01-0.09,0.02-0.1c0.01,0,0.01,0,0.01,0
	c0,0,0.01,0.01,0.01,0.01c0.27-0.63,0.52-1.26,0.74-1.91c0-0.01,0-0.02,0.01-0.02c0.01-0.07,0.03-0.14,0.07-0.23
	c0.11-0.34,0.21-0.69,0.31-1.04c-0.01-0.02-0.03-0.05-0.04-0.08c-0.02-0.12-0.01-0.19,0.04-0.2c0.02,0,0.04,0,0.07,0.01
	c0.08-0.29,0.15-0.58,0.22-0.88c-0.06,0.03-0.1,0.04-0.13,0.04c-0.06,0.01-0.04-0.05,0.01-0.15c0.07-0.16,0.14-0.27,0.22-0.37
	c0.07-0.36,0.14-0.72,0.19-1.09c-0.55,0.3-0.8,0.46-0.96,0.65c-0.11,0.12-0.22,0.24-0.33,0.35c0.01,0,0.01,0,0.02,0
	c0.03,0,0.06,0.02,0.07,0.08c0.07,0.39,0.11,0.81,0.11,0.81l-1.17,0.4c0,0,0.42-0.71,0.73-1.08c-0.23,0.19-0.46,0.35-0.71,0.47
	l0.17-0.01l-0.17,0.21c-0.05,0.07-0.12,0.13-0.18,0.18c-0.09,0.34-0.19,0.68-0.29,1.01c0.06-0.08,0.14-0.17,0.17-0.22
	c0.01-0.02,0.03-0.03,0.04-0.04c0.03-0.01,0.05,0.04,0.06,0.15c0.01,0.13,0.04,0.23,0.06,0.22c0.02,0,0.03-0.1,0.03-0.21
	c-0.01-0.23,1.62-0.48,1.7-0.26c0.03,0.08-0.24,0.21-0.59,0.29c-0.35,0.07-0.85,0.24-1.12,0.37c-0.13,0.06-0.25,0.1-0.34,0.11
	c-0.06,0.01-0.11,0.01-0.14-0.01c-0.39,1.15-0.87,2.25-1.44,3.31c0.04,0.04,0.02,0.09-0.05,0.1c0,0-0.01,0-0.01,0
	c-0.18,0.33-0.37,0.65-0.56,0.97c0.01,0.2,0,0.38,0,0.38l-0.28,0.05c-0.33,0.51-0.68,1.01-1.05,1.5c0.01,0.01,0.03,0.01,0.03,0.02
	c0.1-0.02,0.25-0.05,0.26-0.06c0.04-0.01,0.08,0,0.11,0.02c0.06,0.04,0.01,0.1-0.11,0.12c-0.01,0-0.07,0.01-0.08,0.01
	c0.15,0.08,0.32,0.17,0.41,0.24c0.02,0.02,0.03,0.05,0.05,0.08c0.01,0,0.02-0.01,0.03-0.02c0.05-0.01,0.07-0.11,0.04-0.22
	c-0.04-0.12,0.07-0.23,0.25-0.26c0.17-0.03,0.3,0,0.28,0.07s-0.01,0.26,0.02,0.43c0.04,0.24-0.01,0.32-0.21,0.36
	c-0.15,0.02-0.32-0.06-0.38-0.17c0-0.01-0.01-0.01-0.01-0.02c0,0.01,0,0.02-0.01,0.02c-0.12,0.18-0.71,0.13-0.71,0.13l0.01-0.62
	c-0.02,0-0.05,0-0.07,0c-0.82,1.05-1.72,2.03-2.72,2.92c0.03,0.22,0.02,0.4-0.02,0.44c-0.02,0.03-0.05,0-0.09-0.1
	c-0.02-0.05-0.04-0.12-0.06-0.19c-2.09,1.83-4.56,3.29-7.29,4.23c0.04,0.03,0.1,0.09,0.17,0.17c0.21,0.25,0.44,0.28,0.73,0.08
	l0.01,0l0-0.3c0,0,0.11,0.06,0.21,0.11c0.03-0.03,0.06-0.06,0.09-0.09c0.11-0.11,0.16-0.07,0.2,0.17c0.01,0.04,0,0.06,0.01,0.09
	c0.04,0.02,0.09,0.04,0.12,0.06c-0.01-0.03-0.02-0.06-0.03-0.11c-0.04-0.24-0.02-0.36,0.09-0.4c0.09-0.03,0.27-0.11,0.41-0.18
	c0.17-0.08,0.35-0.13,0.5-0.16c0.27-0.05,0.49-0.02,0.59,0.09c0.14,0.15,0.13,0.18-0.1,0.24c-0.15,0.04-0.33-0.02-0.4-0.13
	c-0.08-0.14-0.11-0.13-0.1,0.02c0.01,0.13-0.17,0.25-0.42,0.3c-0.22,0.04-0.41,0.17-0.46,0.29c0.15-0.17,0.27-0.25,0.29-0.09
	c0.07,0.39,0.11,0.81,0.11,0.81l-1.17,0.4c0,0,0.18-0.33,0.4-0.65c-0.18,0.02-0.36,0-0.36,0c-0.07,0.04-0.14,0.07-0.19,0.09
	c-0.18,0.06-0.27,0-0.35-0.19c-0.08-0.18-0.21-0.31-0.31-0.3c-0.13,0.02-0.17-0.03-0.17-0.23c0-0.02,0-0.04,0-0.05
	c-0.35,0.12-0.7,0.22-1.06,0.33c0,0.1-0.02,0.18-0.06,0.19c-0.08,0.02-0.08,0.06,0.01,0.22c0.06,0.12,0.08,0.21,0.05,0.22
	c-0.03,0.01-0.07-0.09-0.11-0.2c-0.04-0.13-0.06-0.27-0.07-0.38c-0.66,0.18-1.33,0.34-2.02,0.46c-0.31,0.05-0.61,0.1-0.91,0.14
	c0.09,0.32,0.14,0.79,0.09,0.88c-0.03,0.06-0.34,0.15-0.69,0.21c-0.47,0.08-0.6,0.05-0.67-0.16c-0.08,0.01-0.13-0.02-0.1-0.08
	c0.01-0.03,0.04-0.04,0.06-0.05c-0.03-0.16-0.02-0.26,0.09-0.36c-0.02,0.01-0.05,0.03-0.09,0.04c-0.11,0.02-0.15-0.01-0.11-0.08
	c0.04-0.06,0.12-0.08,0.19-0.03c0.03,0.02,0.03,0.04,0.02,0.06c0.07-0.06,0.19-0.12,0.34-0.19c0.12-0.06,0.24-0.12,0.34-0.18
	c-1.62,0.18-3.23,0.18-4.8,0c-0.06,0.2-0.23,0.34-0.37,0.31c-0.13-0.03-0.05-0.15,0.02-0.31c-0.02-0.01-0.03-0.02-0.02-0.04
	c-0.74-0.09-1.46-0.22-2.18-0.38l-0.01,0.54c0,0-0.47-0.22-0.65-0.33c-0.07-0.05-0.1-0.2-0.05-0.27c0.03-0.04,0.08-0.06,0.14-0.08
	c-0.16-0.04-0.31-0.08-0.47-0.12c-0.04,0.05-0.07,0.09-0.09,0.13c-0.15,0.26-0.25,0.38-0.32,0.39c-0.04,0-0.07-0.04-0.1-0.11
	c-0.07-0.16-0.17-0.18-0.28-0.06c-0.1,0.11-0.19,0.1-0.21-0.04c-0.06-0.32,0.21-0.57,0.47-0.44c0.09,0.04,0.14,0.05,0.16,0.01
	c-0.9-0.27-1.77-0.6-2.62-0.98c-1.61-0.72-3.14-1.64-4.53-2.72c-0.09,0.22-0.15,0.42-0.13,0.53c0.07,0.39,0.53,0.64,0.22,0.7
	c-0.32,0.06-0.64-0.22-0.7-0.61c-0.03-0.16,0.08-0.48,0.24-0.82c-0.08,0.03-0.13,0.05-0.16,0.07c-0.04,0.02-0.07,0.03-0.1,0.04
	c-0.08,0.02-0.13-0.01-0.11-0.1c0.01-0.05,0.12-0.13,0.26-0.22c-0.07-0.06-0.14-0.11-0.21-0.17c-0.22,0.08-0.45,0.17-0.67,0.25
	c-0.33,0.11-0.54,0.17-0.68,0.19c-0.24,0.04-0.28-0.05-0.32-0.27c-0.05-0.31-0.05-0.33,0.04-0.12c0.07,0.17,0.12,0.17,0.14,0.03
	c0.01-0.05,0.11-0.11,0.25-0.18c-0.02-0.02-0.05-0.11-0.07-0.21c-0.01-0.06-0.02-0.11-0.03-0.16c-0.04,0.02-0.07,0.07-0.14,0.16
	C8.2,40.68,8.05,40.73,8,40.66c-0.06-0.08,0.06-0.26,0.27-0.44c0.01-0.01,0.01-0.01,0.02-0.01c-0.17,0.01-0.32-0.04-0.34-0.18
	c-0.02-0.12,0.06-0.25,0.19-0.28c0.12-0.03,0.24-0.1,0.28-0.16c-0.29-0.29-0.58-0.59-0.85-0.91c-0.01,0.01-0.02,0.02-0.04,0.03
	c-0.05,0.02-0.09-0.07-0.12-0.2c-0.38-0.43-0.75-0.89-1.09-1.35c0.01,0.04,0.01,0.09-0.02,0.1c-0.04,0.02-0.09-0.04-0.08-0.11
	c0-0.04,0.02-0.06,0.03-0.07c0.01,0,0.01-0.01,0.02,0c-0.23-0.31-0.45-0.62-0.66-0.94c-0.1,0.19-0.21,0.3-0.29,0.28
	c-0.11-0.04-0.58-0.41-0.48-0.72c0.04-0.13,0.17-0.23,0.31-0.29C5.01,35.19,4.89,34.98,4.77,34.76z M41.13,28.5
	c0.02,0,0.05,0.01,0.07,0.01c0.16,0.03,0,0.19-0.05,0.43c-0.05,0.23,0.02,0.45-0.14,0.42c-0.16-0.03-0.24-0.25-0.19-0.49
	C40.86,28.66,41,28.51,41.13,28.5z M42.44,28.44c0.04-0.02,0.08,0.03,0.08,0.1c0,0.04-0.01,0.06-0.02,0.07
	c-0.01,0.01-0.04,0-0.06-0.03C42.39,28.52,42.39,28.46,42.44,28.44z M10.54,34.7c-0.01,0.01-0.01,0.01-0.02,0.01
	c-0.07,0.09-0.33,0.25-0.58,0.34c-0.21,0.08-0.49,0.26-0.68,0.44l0.17,0.14c0,0-0.19,0.06-0.42,0.12c-0.03,0.03-0.05,0.05-0.07,0.08
	c0.69,0.88,1.45,1.69,2.27,2.42c0.11-0.03,0.23-0.06,0.34-0.08c0.13-0.02,0.24-0.03,0.33-0.02c-0.02-0.1,0-0.19,0.05-0.2
	c0.05-0.01,0.1,0.03,0.11,0.08c0.01,0.04-0.02,0.1-0.04,0.17c0.03,0.02,0.04,0.05,0.05,0.09c0.02,0.14-0.17,0.21-0.41,0.25
	c-0.01,0.01-0.02,0.01-0.03,0.02c-0.01,0-0.02,0-0.03,0.01c0.14,0.12,0.29,0.24,0.44,0.36c0.02-0.02,0.04-0.03,0.07-0.04
	c0.05-0.04,0.38-0.2,0.72-0.35c0.29-0.13,0.71-0.42,1.01-0.68c-0.37-0.27-0.73-0.56-1.08-0.87l-0.02,0.03c0,0-0.7-0.01-1.1-0.15
	c-0.04,0.09-0.07,0.17-0.11,0.24c0.04,0.05,0.02,0.1-0.04,0.11c0,0-0.01,0-0.01,0c-0.01,0.02-0.03,0.06-0.03,0.06
	s-0.1,0.02-0.23,0.05c0.03,0,0.05,0,0.08,0.03c0.05,0.05,0.03,0.1-0.05,0.12c-0.08,0.01-0.13-0.03-0.1-0.09
	c0.02-0.03,0.05-0.05,0.08-0.06c-0.31,0.07-0.85,0.15-0.89-0.17c-0.05-0.34,0.45-0.84,0.88-0.98c0.06-0.02,0.13-0.03,0.19-0.03
	c0.07-0.01,0.13,0,0.19,0.02c0.14,0.05,0.18,0.18,0.17,0.33c0.35,0.07,0.8,0.29,0.8,0.29C11.79,36.15,11.14,35.45,10.54,34.7z
	 M41.96,29.65c-0.07,0.01-0.1,0.11-0.06,0.24c0.04,0.13,0.01,0.22-0.06,0.24c-0.07,0.01-0.16-0.07-0.19-0.18
	c-0.09-0.31-0.31-0.16-0.28,0.19c0,0.04-0.01,0.08-0.02,0.12c0.01,0.02,0.02,0.06,0.03,0.09c0.03,0.11,0.05,0.26,0.04,0.34
	c-0.01,0.08-0.04-0.01-0.08-0.2c-0.01-0.07-0.02-0.13-0.03-0.18c-0.03,0.04-0.08,0.09-0.13,0.12c0.09,0.06,0.14,0.24,0.18,0.53
	c0.11-0.04,0.23-0.08,0.35-0.11c0.08-0.02,0.12-0.03,0.19-0.04c0.11-0.28,0.21-0.56,0.3-0.84c-0.02,0-0.04-0.04-0.06-0.12
	C42.11,29.72,42.04,29.63,41.96,29.65z M40.29,30.72c0.09-0.02,0.15,0.02,0.12,0.09c-0.02,0.03-0.04,0.05-0.08,0.06
	c-0.03,0.01-0.07,0.01-0.1-0.01C40.17,30.8,40.19,30.74,40.29,30.72z M40.41,31.26c0.08-0.01,0.14,0.01,0.15,0.09
	c0.02,0.09-0.02,0.19-0.09,0.2c-0.07,0.01-0.2,0.1-0.31,0.19c-0.03,0.03-0.06,0.06-0.08,0.07c-0.07,0.04-0.1-0.01-0.1-0.13
	C39.98,31.49,40.23,31.29,40.41,31.26z M40.96,31.83c0.02-0.01,0.04-0.01,0.06-0.01c0.14-0.02,0.24,0.02,0.26,0.14
	c0.02,0.12,0.02,0.21,0,0.19c-0.02-0.02-0.17-0.08-0.32-0.13l-0.28-0.1L40.96,31.83z M45.24,31.51c0.02-0.01,0.04-0.01,0.06-0.01
	c0.15-0.02,0.23,0.06,0.28,0.26c0.04,0.17,0.06,0.36,0.04,0.44c-0.03,0.09-0.1,0.14-0.17,0.16c-0.12,0.03-0.27-0.02-0.32-0.17
	c-0.04-0.12-0.02-0.24,0.05-0.26l0.12-0.04l-0.15-0.15C45.01,31.61,45.03,31.57,45.24,31.51z M11.43,37.84
	c0.06-0.01,0.09,0.04,0.07,0.1C11.5,37.98,11.48,38,11.46,38c-0.02,0-0.05,0-0.07-0.03C11.35,37.91,11.37,37.85,11.43,37.84z
	 M12.27,37.7c0,0,0.01,0,0.01,0c0.02,0.01,0.09,0.06,0.16,0.1c0.07,0.04,0.17,0.18,0.21,0.3c0.03,0.08,0.04,0.12,0.02,0.13
	c-0.01,0.01-0.04-0.01-0.1-0.06c-0.09-0.08-0.19-0.14-0.23-0.12c-0.04,0.02-0.08-0.07-0.09-0.19C12.25,37.77,12.26,37.7,12.27,37.7z
	 M14.11,38.07c-0.35,0.37-0.73,0.67-1.13,0.86l0.17,0l-0.17,0.21c-0.1,0.12-0.21,0.22-0.32,0.29c0.26,0.19,0.53,0.37,0.8,0.55
	c0.47-0.1,1.05-0.13,1.1,0c0.03,0.08-0.23,0.2-0.58,0.27c-0.02,0-0.05,0.01-0.07,0.01c1.92,1.2,4.06,2.05,6.32,2.51
	c-0.04-0.33,0.16-0.81,0.16-0.81s0.26-0.12,0.52-0.19c0.27-0.06,0.55-0.08,0.62,0.14c0.1,0.29-0.22,0.75-0.58,0.99
	c2.06,0.34,4.22,0.34,6.39-0.04c1.36-0.24,2.66-0.62,3.9-1.12c-0.83,0.14-1.66,0.21-1.7,0.09c-0.03-0.08,0.07-0.16,0.22-0.18
	c0.15-0.02,0.76-0.17,1.35-0.33c0.59-0.16,1.09-0.22,1.12-0.13c0.03,0.08,0.15,0.04,0.28-0.08c0.25-0.24,0.7-0.48,0.91-0.53
	c0.07-0.02,0.11-0.01,0.11,0.02c0,0.01-0.01,0.02-0.02,0.03c0.36-0.2,0.71-0.41,1.05-0.63c0-0.01-0.01-0.02-0.02-0.03
	c-0.24,0.01-0.44-0.07-0.46-0.21c-0.03-0.16,0.18-0.33,0.46-0.38c0.28-0.05,0.16,0.11,0.19,0.27c0.01,0.08,0.05,0.14,0.07,0.19
	c1.64-1.12,3.09-2.48,4.3-4.03c-0.04-0.14-0.05-0.21,0-0.21c0.03,0,0.07,0.01,0.13,0.03c0.2-0.26,0.4-0.53,0.58-0.81
	c-0.7,0.23-1.55,0.49-1.67,0.49c-0.03,0-0.08,0-0.11,0c-0.05,0-0.79,0.27-1.58,0.59c-0.26,0.28-0.54,0.55-0.82,0.81
	c0.01-0.01,0.02-0.01,0.03-0.02c0.02,0,0.04,0,0.06,0.03c0.04,0.06,0.03,0.11-0.03,0.12c-0.06,0.01-0.1-0.04-0.08-0.1
	c0-0.01,0-0.02,0.01-0.02c-0.91,0.83-1.92,1.57-3,2.19c0.51-0.07,0.77-0.04,0.75,0.08c-0.03,0.2-1.31,0.54-2.38,0.74
	c-0.23,0.1-0.46,0.2-0.69,0.29c0.01,0.01,0.02,0.03,0.02,0.04c0.02,0.12-0.18,0.26-0.46,0.3c-0.18,0.03-0.34,0.02-0.44-0.03
	c-0.27,0.09-0.54,0.16-0.82,0.24c-0.01,0.05-0.02,0.08-0.04,0.07c-0.01,0-0.03-0.02-0.04-0.05c-0.49,0.13-0.99,0.25-1.51,0.34
	c-0.03,0-0.05,0.01-0.08,0.01c0.19-0.01,0.38,0.03,0.41,0.19c0.02,0.14-0.32,0.21-0.44,0.4c-0.16,0.24-0.12,0.6-0.23,0.62
	c-0.2,0.03-0.41-0.19-0.46-0.5c-0.05-0.27,0.02-0.52,0.17-0.62c-0.14,0.02-0.27,0.03-0.41,0.05c0,0.12-0.02,0.2-0.05,0.21
	c-0.03,0.01-0.06-0.04-0.1-0.16c0-0.01,0-0.02-0.01-0.03c-0.66,0.07-1.32,0.1-1.98,0.09c0.06,0.05,0.12,0.12,0.13,0.2
	c0.06,0.32-0.42,0.72-0.54,0.75c-0.12,0.02-0.26-0.23-0.32-0.54c-0.03-0.17-0.03-0.32,0-0.43c-1.58-0.08-3.12-0.39-4.58-0.89
	c-0.28,0.08-0.6,0.1-0.6,0.1l-0.31-0.43c-0.21-0.09-0.43-0.19-0.64-0.28c-0.05,0.01-0.1,0.04-0.15,0.05
	c-0.39,0.09-0.75,0.19-0.79,0.22c-0.01,0.01-0.02,0.02-0.05,0.02c-0.09,0.01-0.26,0-0.44-0.02l-0.44-0.05l0.33-0.1
	c0.44-0.14,0.79-0.25,1.07-0.33c-0.17-0.08-0.34-0.16-0.5-0.25c-0.28,0.09-0.51,0.16-0.65,0.19c-0.24,0.05-0.3,0.02-0.3-0.06
	c0-0.08,0.22-0.22,0.54-0.35c-0.16-0.09-0.31-0.18-0.46-0.27c-0.16,0.09-0.26,0.14-0.3,0.15c-0.06,0.01-0.04-0.05,0.01-0.15
	c0.02-0.05,0.05-0.1,0.07-0.14C14.62,38.42,14.36,38.24,14.11,38.07z M38.56,33.87c0.24-0.03,0.52-0.01,0.52-0.01
	c0,0-0.26,0.29-0.33,0.4c-0.15,0.21-0.45,0.18-0.45,0.18s-0.15-0.32-0.07-0.42C38.28,33.93,38.42,33.89,38.56,33.87z M12.45,39.17
	c-0.03,0.01-0.05,0.01-0.08,0.02c0.01,0.01,0.02,0.02,0.03,0.03C12.41,39.2,12.42,39.18,12.45,39.17z M8.8,39.96
	C8.77,40,8.72,40.04,8.67,40.07c0.09,0.06,0.14,0.24,0.18,0.53c0.11-0.04,0.23-0.08,0.35-0.11c0.06-0.01,0.09-0.02,0.14-0.04
	c-0.16-0.14-0.32-0.28-0.47-0.43c0.03,0.11,0.04,0.23,0.03,0.3c-0.01,0.08-0.04-0.01-0.08-0.2C8.82,40.07,8.81,40.01,8.8,39.96z
	 M43.92,33.8c0.03,0,0.05,0,0.08,0.03c0.05,0.05,0.03,0.1-0.05,0.12c-0.08,0.01-0.13-0.03-0.1-0.09
	C43.86,33.82,43.9,33.8,43.92,33.8z M8.5,40.36c0.02,0.04,0.03,0.09,0.05,0.15c0.03,0.1,0.04,0.19,0.03,0.22
	c0.03-0.01,0.06-0.03,0.09-0.05C8.59,40.46,8.55,40.37,8.5,40.36z M14.65,39.7c0.05-0.01,0.12,0.04,0.24,0.15
	c0.14,0.13,0.14,0.15-0.04,0.21c-0.11,0.03-0.22-0.04-0.24-0.16C14.59,39.77,14.6,39.71,14.65,39.7z M37.55,36.04
	c0.08-0.02,0.18-0.02,0.27-0.03c0,0,0.01,0,0.01,0c0.1-0.02,0.2-0.05,0.3-0.06c0.23-0.04,0.43-0.05,0.45,0.01
	c0.04,0.1-0.17,0.26-0.51,0.42c-0.01,0-0.01,0.01-0.02,0.01c-0.09,0.06-0.21,0.13-0.27,0.23c-0.16,0.24-0.12,0.59-0.23,0.61
	c-0.2,0.03-0.41-0.19-0.46-0.51c0,0,0-0.01,0-0.01c-0.09,0-0.14-0.03-0.1-0.09c0.03-0.06,0.06-0.11,0.1-0.18
	c0.03-0.19,0.13-0.33,0.27-0.36C37.39,36.08,37.46,36.06,37.55,36.04z M43.43,35.03c0.02,0,0.04,0,0.06,0.03
	c0.04,0.06,0.03,0.11-0.03,0.12c-0.06,0.01-0.09-0.04-0.07-0.1C43.39,35.05,43.41,35.03,43.43,35.03z M36.25,36.42
	c0.02-0.01,0.05-0.01,0.08-0.01c0.15-0.03,0.35,0.02,0.4,0.13c0.03,0.07-0.08,0.15-0.23,0.18c-0.1,0.02-0.2,0-0.26-0.04
	c0.08,0.09,0.15,0.26,0.19,0.46c0.06,0.32,0,0.59-0.12,0.61c-0.12,0.02-0.8-0.12-0.86-0.44c-0.03-0.17,0.35,0.02,0.51-0.12
	c0.15-0.12,0.09-0.58,0.14-0.59c0.02,0,0.04,0.01,0.07,0.02c-0.01-0.01-0.01-0.03-0.02-0.04C36.13,36.51,36.18,36.45,36.25,36.42z
	 M43.08,35.31c0.03-0.01,0.07,0,0.1,0.02c0.06,0.04,0.04,0.09-0.06,0.11c-0.09,0.02-0.15-0.01-0.12-0.07
	C43.02,35.34,43.05,35.32,43.08,35.31z M9.17,41.31c0.05-0.01,0.1,0.02,0.11,0.07c0.01,0.05-0.02,0.14-0.06,0.21
	c-0.01,0.02-0.01,0.04-0.02,0.05c-0.03,0.02-0.06-0.03-0.07-0.12C9.1,41.42,9.12,41.32,9.17,41.31z M8.52,41.46
	c0.14-0.02,0.24,0.03,0.26,0.15c0.02,0.12,0.02,0.21,0,0.19c-0.02-0.02-0.18-0.08-0.33-0.13l-0.28-0.1l0.29-0.08
	C8.48,41.48,8.5,41.46,8.52,41.46z M34.14,37.97c0.01,0,0.03,0,0.04-0.01c0.12-0.02,0.18,0.01,0.12,0.07
	c-0.03,0.03-0.07,0.07-0.1,0.07c-0.04,0.01-0.08-0.01-0.11-0.03C34.03,38.03,34.06,37.99,34.14,37.97z M43.18,36.5
	c0.03-0.01,0.1,0.06,0.16,0.2c0.08,0.16,0.08,0.21,0.01,0.22c-0.05,0.01-0.13-0.08-0.16-0.2C43.15,36.58,43.15,36.51,43.18,36.5z
	 M42.47,36.86c0.04,0,0.06,0.05,0.06,0.12c0,0.04-0.01,0.05-0.02,0.06c-0.01,0.01-0.04,0-0.06-0.03c-0.05-0.06-0.04-0.11,0.01-0.13
	C42.47,36.87,42.46,36.86,42.47,36.86z M34.41,38.34c0.06-0.01,0.09,0.04,0.07,0.1c-0.01,0.03-0.02,0.06-0.04,0.06
	c-0.02,0-0.04-0.01-0.06-0.04C34.34,38.41,34.36,38.35,34.41,38.34z M42.66,37.64c-0.02,0-0.04,0.03-0.06,0.06
	c-0.07,0.11-0.07,0.17,0,0.22c0.01,0.01,0.03,0.01,0.04,0c0.03-0.01,0.06-0.07,0.06-0.16C42.7,37.68,42.68,37.63,42.66,37.64z
	 M11.42,43.45c0.03,0,0.05,0,0.08,0.03c0.05,0.05,0.03,0.09-0.06,0.11c-0.08,0.01-0.13-0.02-0.1-0.08
	C11.36,43.48,11.39,43.46,11.42,43.45z M41.66,38.43c0.09-0.02,0.15-0.02,0.15,0.02c0,0.07-0.23,0.26-0.51,0.39
	c-0.14,0.07-0.27,0.11-0.36,0.13s-0.15,0.01-0.15-0.03c0-0.08,0.23-0.25,0.51-0.38C41.44,38.49,41.57,38.45,41.66,38.43z
	 M22.65,41.9c0.05-0.01,0.1,0.02,0.11,0.07c0.01,0.05-0.02,0.14-0.06,0.21c-0.01,0.02-0.02,0.03-0.03,0.04
	c-0.03,0.02-0.06-0.02-0.07-0.1C22.58,42,22.6,41.91,22.65,41.9z M25.21,41.52c0.05-0.01,0.1,0.03,0.15,0.1
	c0.28-0.11,0.55-0.17,0.61,0.01c0.06,0.16-0.18,0.28-0.46,0.36c0,0.02,0.01,0.04,0.01,0.06c0.06,0.32,0.01,0.58-0.11,0.61
	c-0.12,0.02-0.8-0.12-0.86-0.44c-0.01-0.04,0.01-0.05,0.03-0.06l-0.02-0.13c0,0,0.3-0.18,0.61-0.33
	C25.18,41.61,25.19,41.53,25.21,41.52z M21.91,42.13c0.04,0,0.06,0.05,0.06,0.12c0,0.04-0.02,0.05-0.03,0.06
	c-0.01,0.01-0.03,0-0.05-0.03c-0.05-0.06-0.05-0.11,0-0.13C21.9,42.14,21.91,42.13,21.91,42.13z M13.63,43.62
	c0.07-0.02,0.11,0.03,0.09,0.09c-0.01,0.03-0.03,0.05-0.05,0.05s-0.04-0.01-0.07-0.03C13.54,43.68,13.55,43.64,13.63,43.62z
	 M32.7,40.31c0.29-0.05,0.38-0.01,0.27,0.09c-0.21,0.2-1.71,0.6-2.78,0.81c-0.17,0.03-0.33,0.06-0.48,0.08
	c-0.03,0.03-0.25,0.27-0.32,0.38c-0.04,0.05-0.08,0.09-0.13,0.12c0.11-0.01,0.16,0.03,0.1,0.09c-0.03,0.03-0.07,0.04-0.11,0.05
	c-0.04,0.01-0.08,0.01-0.11-0.01c-0.04-0.03-0.04-0.07,0.01-0.1c-0.11,0.03-0.22,0.04-0.22,0.04c0,0-0.15-0.33-0.08-0.43
	c0.04-0.06,0.13-0.09,0.23-0.11c-0.01-0.01-0.02-0.01-0.01-0.02c0.03-0.11,0.4-0.25,0.83-0.33c0.43-0.07,1.35-0.29,2.05-0.48
	C32.28,40.4,32.53,40.34,32.7,40.31z M39.84,39.42c0.02-0.01,0.05,0.02,0.08,0.09c0.1,0.25,0.12,0.77,0.03,0.78
	c-0.06,0.01-0.1-0.11-0.14-0.37C39.77,39.66,39.79,39.45,39.84,39.42z M40.17,39.37c0.04-0.02,0.08,0.04,0.07,0.11
	c0,0.04-0.01,0.05-0.02,0.06c-0.01,0.01-0.04,0-0.06-0.03C40.12,39.44,40.12,39.39,40.17,39.37z M41.36,39.19
	c0.03-0.01,0.06-0.01,0.09-0.02l0.5-0.06l-0.41,0.21c-0.11,0.06-0.22,0.1-0.31,0.11c-0.09,0.01-0.15-0.01-0.18-0.05
	C41,39.31,41.14,39.23,41.36,39.19z M24.73,42.15c0.11,0.01,0.24,0.02,0.32-0.05c0,0,0-0.01,0-0.01c-0.11,0.02-0.19,0.03-0.19,0.03
	L24.73,42.15z M13.74,44.29c0.09-0.02,0.15,0.01,0.12,0.07c-0.02,0.03-0.05,0.05-0.09,0.06c-0.03,0.01-0.06,0.01-0.09-0.02
	C13.63,44.37,13.65,44.31,13.74,44.29z M24.16,42.57c0.01-0.01,0.04,0,0.06,0.03c0.05,0.06,0.04,0.12-0.01,0.14
	c-0.04,0.02-0.07-0.03-0.07-0.1C24.14,42.6,24.14,42.58,24.16,42.57z M40.39,39.77c0.06-0.01,0.07,0.01,0.05,0.2
	c-0.02,0.15-0.04,0.23-0.07,0.24c-0.02,0-0.04-0.07-0.05-0.22C40.32,39.88,40.35,39.78,40.39,39.77z M13.9,44.68
	c0.04-0.02,0.08,0.04,0.08,0.11c0,0.04-0.02,0.05-0.03,0.06c-0.01,0.01-0.04,0-0.06-0.03C13.84,44.76,13.85,44.7,13.9,44.68z
	 M38.19,41.12c0.01-0.01,0.03-0.01,0.05-0.01c0.08-0.01,0.12,0.02,0.09,0.08c-0.02,0.03-0.04,0.05-0.07,0.05
	c-0.03,0-0.06,0-0.09-0.03C38.14,41.19,38.15,41.14,38.19,41.12z M17,44.97c0,0-0.98,1.56-1.07,1.16c-0.03,0.01-0.06-0.07-0.07-0.21
	c0-0.06,0-0.12,0.01-0.16c-0.03-0.22-0.05-0.4-0.05-0.4L17,44.97z M38.97,41.3c0.31-0.05,0.56-0.06,0.56-0.01
	c0,0.12-0.43,0.3-0.76,0.36c-0.19,0.04-0.35,0.04-0.36-0.03C38.41,41.49,38.65,41.35,38.97,41.3z M39.95,41.25
	c0.06-0.01,0.09,0.03,0.07,0.09c-0.01,0.03-0.02,0.06-0.04,0.06c-0.02,0-0.04-0.01-0.06-0.04C39.87,41.31,39.89,41.26,39.95,41.25z
	 M38.22,41.68c0.03,0,0.06,0,0.09,0.03c0.05,0.05,0.02,0.1-0.06,0.12c-0.08,0.01-0.12-0.03-0.09-0.09
	C38.17,41.7,38.2,41.69,38.22,41.68z M39.21,41.59c0.18-0.04,0.32-0.03,0.31,0.03c0,0.06-0.35,0.21-0.76,0.34
	c-0.12,0.04-0.22,0.07-0.3,0.09c-0.25,0.06-0.32,0.04-0.18-0.07C38.46,41.82,38.91,41.65,39.21,41.59z M37.44,42.02
	c0.11-0.02,0.18-0.01,0.18,0.06c0,0.05-0.14,0.16-0.32,0.26c-0.05,0.03-0.1,0.04-0.14,0.06c-0.11,0.04-0.18,0.01-0.17-0.09
	C37.02,42.19,37.26,42.06,37.44,42.02z M37.75,42c0.01-0.01,0.04,0,0.06,0.03c0.05,0.06,0.04,0.12-0.01,0.14
	c-0.04,0.02-0.07-0.03-0.07-0.1C37.73,42.03,37.73,42.01,37.75,42z M15.53,45.97c0.02,0,0.05,0.02,0.06,0.09
	c0.01,0.05-0.02,0.14-0.06,0.21c-0.01,0.02-0.02,0.03-0.03,0.04c-0.03,0.02-0.05-0.03-0.05-0.12
	C15.45,46.06,15.49,45.98,15.53,45.97z M15.72,45.96c0.04-0.02,0.07,0.03,0.07,0.1c0,0.04-0.01,0.06-0.02,0.07s-0.04,0-0.06-0.03
	C15.67,46.03,15.67,45.98,15.72,45.96z M36.83,42.39c0.02,0,0.05,0.01,0.07,0.04c0.04,0.06,0.02,0.11-0.04,0.12
	c-0.06,0.01-0.09-0.04-0.07-0.1C36.8,42.41,36.81,42.39,36.83,42.39z M21.2,46.51c0.01-0.01,0.04,0,0.06,0.03
	c0.05,0.06,0.04,0.13-0.01,0.15c-0.04,0.02-0.08-0.04-0.07-0.12C21.18,46.54,21.19,46.51,21.2,46.51z M21.42,46.47
	c0.02-0.01,0.05,0,0.08,0.03c0.05,0.05,0.04,0.11-0.03,0.12c-0.07,0.02-0.12-0.02-0.1-0.09C21.38,46.5,21.4,46.47,21.42,46.47z
	 M22.66,46.71c0.02,0,0.05,0.01,0.07,0.04c0.04,0.06,0.02,0.1-0.04,0.11c-0.06,0.01-0.09-0.03-0.07-0.09
	C22.62,46.74,22.64,46.71,22.66,46.71z M24.16,46.81c0.08-0.01,0.18,0.06,0.2,0.18c0.01,0.05-0.06,0.09-0.15,0.1
	c-0.1,0.02-0.15-0.04-0.14-0.17C24.08,46.85,24.11,46.81,24.16,46.81z M25.82,46.51c-0.07,0.03-0.07,0.06-0.01,0.09
	c0.04,0.02,0.09,0.03,0.14,0.02c0.05-0.01,0.09-0.03,0.12-0.06c0.06-0.06-0.02-0.08-0.16-0.06C25.88,46.5,25.84,46.5,25.82,46.51z
	 M26.37,46.42c-0.1,0.03-0.13,0.06-0.07,0.1c0.04,0.02,0.09,0.03,0.13,0.02c0.04-0.01,0.08-0.03,0.11-0.06
	c0.06-0.06,0-0.09-0.13-0.06C26.39,46.41,26.38,46.41,26.37,46.42z M22.75,47.15c0.01-0.01,0.03,0,0.05,0.03
	c0.05,0.06,0.05,0.12,0,0.14c-0.04,0.02-0.08-0.03-0.08-0.1C22.72,47.18,22.73,47.16,22.75,47.15z M21.95,47.31l0.75,0.07
	c0,0,0.12,0.13,0.04,0.24c-0.13,0.18-0.71,0.13-0.71,0.13L21.95,47.31z M25.19,46.78c0.28-0.05,0.15,0.11,0.17,0.27
	c0.03,0.16,0.2,0.26-0.07,0.31c-0.28,0.05-0.53-0.04-0.56-0.2C24.7,47.01,24.91,46.83,25.19,46.78z M30.89,45.79
	c0.18-0.04,0.34-0.04,0.4,0.03c0.12,0.14,0,0.22-0.46,0.32c-0.33,0.07-0.6,0.09-0.61,0.04C30.22,46.04,30.58,45.86,30.89,45.79z
	 M29.46,46.13c0.21-0.04,0.38-0.07,0.48-0.07c0.12,0,0.21,0.07,0.23,0.16c0.02,0.09-0.23,0.24-0.55,0.33
	c-0.79,0.22-1.36,0.39-1.81,0.55c0,0.03,0.01,0.05,0.02,0.09c0.04,0.24,0.12,0.45-0.03,0.47c-0.16,0.03-0.32-0.14-0.36-0.37
	c0-0.02,0-0.03,0-0.04c-0.09,0.04-0.19,0.07-0.28,0.11c-0.16,0.07-0.31,0.13-0.41,0.16c-0.1,0.03-0.16,0.02-0.16-0.01
	c0-0.18,0.34-0.43,0.86-0.65c0.26-0.11,0.48-0.24,0.48-0.29C27.93,46.5,28.85,46.25,29.46,46.13z M24.24,47.35
	c0.02,0,0.04,0,0.06,0.03c0.04,0.06,0.03,0.11-0.03,0.12c-0.06,0.01-0.09-0.04-0.07-0.1C24.21,47.36,24.22,47.35,24.24,47.35z
	 M25.64,47.44c0.01-0.01,0.03-0.01,0.05-0.01c0.08-0.01,0.13,0.02,0.1,0.08c-0.02,0.03-0.05,0.05-0.08,0.06
	c-0.03,0-0.05,0-0.08-0.03C25.6,47.5,25.6,47.46,25.64,47.44z"/>
<g>
	<path class="st0" d="M6.28,25.91c-0.15-0.83,0.47-2.01,2.03-2.29c0.51-0.09,1.13,0.03,1.25,0.01c0.11-0.02,0.2-0.15,0.37-0.18
		c0.27-0.05,0.99,0.46,1.11,1.13c0.05,0.27-0.08,0.58-0.38,0.63c-0.54,0.1-1.01-0.76-1.85-0.61c-0.25,0.04-0.49,0.2-0.44,0.49
		c0.11,0.63,1.18,0.27,2.22,0.72c0.56,0.24,0.88,0.6,0.98,1.2c0.17,0.94-0.41,2.14-2.28,2.47c-0.53,0.09-1.46,0.12-1.96-0.05
		c-0.42-0.15-0.76-0.97-0.83-1.37c-0.04-0.22,0.02-0.45,0.26-0.49c0.57-0.1,0.7,1.19,2.18,0.93c0.18-0.03,0.6-0.2,0.55-0.5
		c-0.1-0.58-1.18-0.24-2.19-0.79C6.79,26.92,6.38,26.48,6.28,25.91z"/>
	<path class="st0" d="M16.69,22.23c0.35-0.06,0.5-0.12,0.62-0.17c0.11-0.05,0.17-0.09,0.32-0.12c0.31-0.06,1.07,0.45,1.23,1.31
		c0.07,0.4-0.09,0.7-0.5,0.78c-0.7,0.12-0.86-0.82-1.27-0.75c-0.31,0.06-0.2,0.48-0.19,0.55l0.44,2.46
		c0.17,0.95,0.83,0.37,0.93,0.93c0.04,0.25-0.05,0.63-1.55,0.9c-0.41,0.07-1.91,0.36-2.02-0.26c-0.08-0.43,0.45-0.35,0.56-0.68
		c0.05-0.18,0-0.67-0.03-0.87l-0.25-1.78c-0.12-0.85-0.29-0.81-0.4-0.79c-0.36,0.06-0.37,1.04-1.02,1.16
		c-0.31,0.06-0.55-0.2-0.6-0.49c-0.12-0.68,0.3-1.68,0.75-1.76c0.06-0.01,0.15,0,0.31,0c0.16,0,0.38-0.01,0.7-0.07L16.69,22.23z"/>
	<path class="st0" d="M21.7,24.16c0.15-0.6,0.35-1.36,0.24-2c-0.1-0.55,0.08-1.02,0.8-1.14c0.7-0.12,1.27,0.51,1.67,0.98
		c0.18,0.21,1.83,2.45,2.23,3.05c0.37,0.56,0.74,0.12,0.82,0.57c0.1,0.59-1.04,0.77-1.44,0.84c-1.15,0.2-1.84,0.32-1.93-0.18
		c-0.07-0.38,0.45-0.33,0.4-0.61c-0.06-0.36-0.27-0.36-1.56-0.13c-0.42,0.07-0.66,0.14-0.59,0.53c0.06,0.31,0.53,0.01,0.61,0.43
		c0.09,0.48-0.78,0.64-1.1,0.7c-1.15,0.2-1.29,0.01-1.34-0.25c-0.07-0.38,0.39-0.34,0.57-0.67c0.14-0.25,0.24-0.66,0.31-0.94
		L21.7,24.16z M23.49,24.43c0.08-0.01,0.32-0.04,0.3-0.16c-0.02-0.12-0.33-0.5-0.41-0.6c-0.09-0.12-0.28-0.39-0.46-0.36
		c-0.19,0.03-0.24,0.54-0.26,0.63c-0.02,0.09-0.1,0.43-0.08,0.53c0.02,0.14,0.22,0.08,0.31,0.06L23.49,24.43z"/>
	<path class="st0" d="M30.18,23.3c-0.07-0.1-0.2-0.32-0.34-0.3c-0.25,0.04,0.02,1.09,0.07,1.35c0.15,0.86,0.6,0.37,0.67,0.8
		c0.08,0.46-0.77,0.63-1.09,0.68c-0.28,0.05-1.02,0.16-1.09-0.26c-0.08-0.46,0.47-0.17,0.41-0.84c-0.06-0.69-0.12-1.44-0.32-2.61
		c-0.09-0.48-0.16-0.72-0.28-0.89c-0.11-0.15-0.58-0.13-0.64-0.46c-0.08-0.46,0.64-0.7,1.29-0.82c0.94-0.17,0.95,0,1.27,0.36
		c0.37,0.42,1.1,1.65,1.47,1.67c0.26,0.01,0.41-1.02,0.61-1.6c0.27-0.83,0.24-1.07,1.3-1.26c0.35-0.06,1.16-0.18,1.25,0.32
		c0.06,0.32-0.29,0.45-0.32,0.74c-0.02,0.24,0.09,1.19,0.15,1.55c0.02,0.12,0.23,0.99,0.39,1.74c0.13,0.58,0.59,0.37,0.65,0.73
		c0.1,0.54-1.01,0.71-1.36,0.77c-0.33,0.06-1.42,0.29-1.51-0.23c-0.05-0.28,0.3-0.39,0.31-0.66c0.01-0.14-0.08-1.55-0.36-1.5
		c-0.25,0.04-0.38,0.8-0.5,1.24c-0.11,0.4-0.24,1.37-0.5,1.38c-0.13,0.01-0.19,0.03-0.87-0.96L30.18,23.3z"/>
	<path class="st0" d="M36.68,19.93c-0.11-0.6-0.81-0.2-0.9-0.71c-0.06-0.32,0.28-0.46,0.53-0.5c0.2-0.04,0.4-0.05,0.6-0.09
		c1.16-0.21,1.85-0.45,2.19-0.51c1.09-0.19,2.26,0.25,2.47,1.46c0.21,1.2-0.68,2.02-1.8,2.22c-0.24,0.04-0.49,0.05-0.71,0.08
		c-0.1,0.02-0.12,0.06-0.11,0.15l0.08,0.47c0.2,1,0.71,0.48,0.8,0.94c0.09,0.52-1.06,0.75-1.42,0.82c-0.34,0.06-1.53,0.26-1.62-0.26
		c-0.08-0.44,0.56-0.27,0.44-0.93L36.68,19.93z M38.77,19.16c-0.31,0.06-0.29,0.15-0.26,0.31l0.21,1.2
		c0.03,0.17-0.01,0.37,0.42,0.29c0.53-0.09,0.67-0.53,0.58-1.02C39.63,19.43,39.3,19.06,38.77,19.16z"/>
</g>
</svg>
