<?xml version="1.0" encoding="utf-8"?>
<!-- Generator: Adobe Illustrator 25.1.0, SVG Export Plug-In . SVG Version: 6.00 Build 0)  -->
<svg version="1.1" id="레이어_1" xmlns="http://www.w3.org/2000/svg" xmlns:xlink="http://www.w3.org/1999/xlink" x="0px"
	 y="0px" viewBox="0 0 15 17" style="enable-background:new 0 0 15 17;" xml:space="preserve">
<style type="text/css">
	.st0{fill:none;stroke:#252525;stroke-width:0.965;stroke-linecap:round;stroke-linejoin:round;stroke-miterlimit:10;}
</style>
<path class="st0" d="M12.59,11.41l-1.29-0.82c-0.98-0.31-1.64-1.22-1.64-2.25V8.16c0.77-0.33,1.31-1.09,1.31-1.98V3.34
	c0-1.19-0.97-1.82-2.16-2.47c0,0-0.61-0.23-1.24-0.23S6.33,0.87,6.33,0.87C5.14,1.52,4.18,2.15,4.18,3.34v2.84
	c0,0.89,0.54,1.66,1.31,1.98v0.17c0,1.03-0.02,1.94-1,2.25l-1.93,0.82c-1.09,0.35-1.83,1.36-1.83,2.51v2.56h13.69v-2.56
	C14.42,12.77,13.68,11.75,12.59,11.41z"/>
</svg>
